/* XPM */
static char *result[] = {
/* columns rows colors chars-per-pixel */
"64 64 124 2 ",
"   c #021101",
".  c #171A1D",
"X  c #1C1D1F",
"o  c #201F22",
"O  c #1F2222",
"+  c #232424",
"@  c #292627",
"#  c #242827",
"$  c #2B2A25",
"%  c #2B2728",
"&  c #262B29",
"*  c #2B2D2C",
"=  c #322B2C",
"-  c #253027",
";  c #2A322D",
":  c #2E3B2E",
">  c #33302D",
",  c #3A322C",
"<  c #362D31",
"1  c #392E32",
"2  c #2D3531",
"3  c #2F3B33",
"4  c #3D3234",
"5  c #303C36",
"6  c #333E39",
"7  c #493C2C",
"8  c #463737",
"9  c #453934",
"0  c #493C34",
"q  c #423439",
"w  c #47383A",
"e  c #4B3A3E",
"r  c #2F4030",
"t  c #324233",
"y  c #354B36",
"u  c #34433B",
"i  c #37493D",
"p  c #375037",
"a  c #3A523B",
"s  c #3D5A3D",
"d  c #4E412D",
"f  c #4E4036",
"g  c #544432",
"h  c #5E4C32",
"j  c #54443A",
"k  c #59463A",
"l  c #5D4A3C",
"z  c #624E3D",
"x  c #635035",
"c  c #6B5437",
"v  c #64503B",
"b  c #6F5838",
"n  c #795C39",
"m  c #40603E",
"M  c #7C603E",
"N  c #4E3B41",
"B  c #533F43",
"V  c #374740",
"C  c #374841",
"Z  c #394B42",
"A  c #3C5343",
"S  c #3F5A43",
"D  c #5A4543",
"F  c #5F4A42",
"G  c #5B434A",
"H  c #415D45",
"J  c #624C42",
"K  c #634A4A",
"L  c #684D48",
"P  c #655042",
"I  c #6B5443",
"U  c #6C534A",
"Y  c #715746",
"T  c #735A43",
"R  c #795E44",
"E  c #73574A",
"W  c #735A49",
"Q  c #795E4A",
"!  c #436445",
"~  c #466A46",
"^  c #486F47",
"/  c #466448",
"(  c #496749",
")  c #466B48",
"_  c #496D49",
"`  c #4B7346",
"'  c #4A734A",
"]  c #4E7A4C",
"[  c #507646",
"{  c #51764D",
"}  c #527D4D",
"|  c #7E6146",
" . c #7D614A",
".. c #84653D",
"X. c #856646",
"o. c #8B6B44",
"O. c #83654A",
"+. c #88674A",
"@. c #86684A",
"#. c #8C6B4A",
"$. c #906E46",
"%. c #906E49",
"&. c #957345",
"*. c #9A7645",
"=. c #9D7847",
"-. c #94724A",
";. c #99754A",
":. c #9E794A",
">. c #A47D4A",
",. c #54834E",
"<. c #5A874D",
"1. c #5B894E",
"2. c #568650",
"3. c #598651",
"4. c #578850",
"5. c #5A8B51",
"6. c #5E9253",
"7. c #619554",
"8. c #649B56",
"9. c #679F58",
"0. c #67A058",
"q. c #6BA45A",
"w. c #A7804A",
"e. c #AB834A",
/* pixels */
"                                                        ^ ,.6.q.q.q.q.q.q.9.,.' ! H A C                             -     -     ",
"                                                        ,.4.8.q.q.q.q.q.q.0.4.,.' ~ S A           .     -     - -               ",
"                                                y s H { 6.8.q.q.q.q.q.q.q.0.8.6.5.,.' ) ,.! r ;                           - -   ",
"                                                s ! ` ,.0.q.q.q.q.q.q.q.q.0.9.8.5.,.] ' ' ! r -       -     -       -           ",
"                                              ( ` } 1.7.0.q.q.q.q.q.q.q.q.9.5.,.,.] ' ' ' m r -   -     -                 -     ",
"                                            ( [ ,.1.7.0.q.q.q.q.q.q.q.q.q.8.,.,.] ' ' ' ' ! y -             -       -           ",
"                                            { } 1.7.0.q.q.q.q.q.q.q.q.0.9.7.4.,.] ] ' ' ' ! y : p -             -   -     - -   ",
"                                            3.1.7.8.0.q.q.q.q.q.q.q.q.9.6.5.4.2.,.,.] ' ' ~ S y p r       -                     ",
"                                            8.8.0.q.q.q.q.q.q.q.q.q.q.9.2.,.6.6.6.2.] ' ' ^ ~ m m m     -     -                 ",
"                                            q.q.q.q.q.q.q.q.q.q.q.9.8.6.,.,.5.6.5.2.] ' ' ' ' ^ m ]   -           -   - -     - ",
"                                            9.q.q.q.q.q.q.q.q.0.8.5.,.2.6.6.,.,.] ] ' ' ' ' ' ^ m m               -             ",
"                                            6.7.7.8.8.0.q.q.0.6.6.4.} ,.6.6.,.] ' ' ' ' ' ' ) ~ m s     -                 -     ",
"                y m m m ( [ } } } } } } 3.} { { } 3.2.5.8.8.6.4.4.5.5.5.5.,.] ' ' ' ' ' ' ) ! S p p     -     -     -           ",
"                p m m m [ <.1.1.3.3.1.1.6.3.' ( ' ' { 3.8.8.4.,.,.5.6.6.,.] ] ' ' ' ' ' ' ) H A p y             -       -     - ",
"                m m [ ,.7.8.8.8.8.8.8.9.9.5.' H ! ( ' } 6.6.,.] ,.5.6.6.,.' ' ' ' ' ' ' ^ ) S A C a                             ",
"                [ } <.6.9.q.q.q.q.q.q.q.q.7.{ _ ( / / ' 2.4.] ] ,.,.6.4.] ' ' ' ' ' ' ^ ~ S A C i m     -     -       -     -   ",
"            _ ] 2.6.6.0.q.q.q.q.q.q.q.q.q.q.9.5.{ ( H H { { ' ' ' ] ] ] ' ' ' ' ' _ _ ( S A Z Z C C C C     .           -       ",
"            } ,.8.q.q.q.q.q.q.q.q.q.q.q.q.q.q.9.3.{ ( H ( ( _ ' ' ' ' ' ' ' ' ' _ _ ) / S S H H ! ! ! /         .               ",
"    * y ! } 5.8.q.q.q.q.q.q.q.q.q.q.q.q.q.q.q.q.9.7.6.} / H ( ' ' ' ' ' ' ' ' ' _ / S S / _ } 5.5.6.5.6.9.8.4.] ` m     -   -   ",
"    ; t ! } 8.q.q.q.q.q.q.q.q.q.q.q.q.q.q.q.q.q.q.q.9.5.H A ( ' ' ' ' ' ' ' ) ) / S A H _ } 6.8.q.q.q.q.q.9.5.} ] ^             ",
"    : y ! } 8.q.q.q.q.q.q.q.q.q.q.q.q.q.q.q.q.q.q.q.0.5.H A ! ' ' ' ' ' ' ) ) ! H H H ) } 5.8.9.q.q.q.q.q.q.6.5.4.` m p   -     ",
"    : y ! } 8.q.q.q.q.q.q.q.q.q.q.q.q.q.q.q.q.q.0.q.q.5.H S ( ' ' ' ' ' ' ) S S S H ! ' 5.6.0.q.q.q.q.q.q.q.9.6.4.] m s         ",
"    : y ! ,.7.q.q.q.q.q.q.q.q.q.q.q.q.q.q.q.q.q.q.0.0.3./ A / ' ' ' ' ' ' ! S A S H ) ] 6.q.q.q.q.q.q.q.q.q.9.9.8.4.` ^ -     - ",
"    : y ! ] 8.q.q.q.q.q.q.q.q.q.q.q.q.q.q.q.q.q.9.8.7.2.H Z H / ! ) ! ! / / A A S / ] 4.9.q.q.q.q.q.q.q.q.q.8.7.6.4.4.4.        ",
"    ; t ! ,.6.q.q.q.q.q.q.q.q.q.q.q.q.q.q.q.q.0.6.5.,._ A Z A A A A A A A A Z A ! ' 5.0.q.q.q.q.q.q.q.q.q.0.5.4.,.` ] ^ s u : - ",
"    : t S ] 5.8.0.q.q.q.q.q.q.q.q.9.9.9.0.q.8.6.2.] _ S i 6 V Z C C C C C Z A S ) ,.6.q.q.q.q.q.q.q.q.0.0.6.4.4.,.] ` ^ s p u - ",
"    ; 5 i S ' 2.6.0.q.q.q.q.q.0.6.4.2.5.0.8.2.] ^ H S C 2 2 u C C C C C Z Z S _ ' 4.0.q.q.q.q.q.q.q.q.8.4.4.5.6.6.4.] ` ) s u r ",
"    & ; 6 A ! ] 5.6.8.0.0.0.0.6.2.} { } 6.6.] ) S S C 3 & & 3 V C C C C C C / ' ,.4.8.0.q.q.q.q.q.q.0.6.,.,.5.6.6.4.] ` ' ! p r ",
"    + & 2 u S ^ 2.2.5.6.6.6.6.5.} ' ( { 2.4.' S S u u 2 + + 2 5 5 5 5 5 6 C H ^ ] ,.5.6.0.q.q.q.0.0.6.6.4.2.4.5.4.2.] ' ' ! p r ",
"    o o ; 3 Z / ' ] 2.2.4.4.2.} ' / / ( } } ! A i 3 2 & + + * * * ; ; * 2 5 s ^ ' ,.,.5.0.q.q.q.0.6.5.4.6.4.5.4.2.,.' ' ' ! p r ",
"        + * u S ( ' ] ] ] ] ] ' / S A S _ ' S C r ; & + O + + + + + # # O 2 S ^ ' ' ' ,.6.q.q.q.0.5.,.,.6.8.4.,.] ' ' ' ' ! p r ",
"        O & 3 u S S ! ~ ~ ) / ! S A A A / S C 6 ; & O X O + @ * = * * & + - p ! ) ) ' ,.6.0.6.6.6.4.' ,.6.6.2.] ' ' ' ^ ) H r r ",
"            @ % u C A A A A A Z Z Z Z Z A i ; # o X . . o @ q N N N N q % & 6 Z H ! ^ ' ] 2.,.} ] ] ] ' ,.] ' ' ' ' ' ) H C 3 - ",
"            o o ; 3 6 u u u u 6 u u u u u 5 = @ o X . X + < N G G B B N = # 2 u i s / ( ^ ^ ) _ ) _ ' _ ) ) ) ' ' ' ) ! A C 2 ; ",
"                O & & ; * * % * * ; - * * > 8 q < @ o + 1 N B G G G G N % + & 2 5 u A H ^ ( ! H H ! _ ) H H ) ) ) ) H A         ",
"                O O + & + + o o + # + # & = e e 8 1 = = e B G B B G G B < # + + - 3 u A ! ) S S S H ) ~ S S H ! ) H A C         ",
"                                        = 9 z J k 0 0 0 B G G G G G K B 1 % + # @ ; 5 i H H H H S H ! ! H S H ! ! S u 6         ",
"                                        0 k Y O.T b c v G G G G G K K D w < @ + # & ; 6 a H H H H H H H H H H S A Z 6 2         ",
"                                        J Y $.;.>.*.&.X.K G G G K L U L B w = o + + # ; i H H H ! H A A ) ! S A Z i             ",
"                                        E O.%.-.>.>.>.&.E K K K U E O.Q E J 8 , = = = = 6 Z H H ) H A A ) ) S A u u             ",
"                                            L E +.;.>.;.Q U U W Q +.;.:.;.#.Y z D j N e                                         ",
"                                            N B Y X.&.-.O.O.Q O.%.;.>.e.>.&.R J F D B N                                         ",
"                                            q q l Y X.#.%.%.-.%.;.>.e.>.&.| l 0 9 4 4 <                                         ",
"                                            % 1 f z T X.-.>.>.>.>.w.e.:.+.Y 0 = = = = *                                         ",
"                                                9 0 z R -.>.>.e.e.e.e.:.Q P                                                     ",
"                                                    z E o.=.>.e.e.e.e.:.Q z                                                     ",
"                                                        Q +.>.e.e.e.e.>.                                                        ",
"                                                        W O.>.e.e.>.>.:.                                                        ",
"                                                        E O.;.>.>.%.X.O.                                                        ",
"                                                        E Q >.>.-.+.Q E                                                         ",
"                                                        E O.>.>.;.+.O.E                                                         ",
"                                                        E O.>.>.;.+.E L                                                         ",
"                                                        L O.>.>.;.+.Q W                                                         ",
"                                                        +.#.>.>.;.#.Q W                                                         ",
"                                                        >.>.>.>.;.+.Q W                                                         ",
"                                                        >.>.>.>.%.O.Q Q                                                         ",
"                                                f k I O.>.>.#. .Q Q W  .;.o.d $                                                 ",
"                                                k l I O.-.;. .W W Q  .O.;.o.h ,                                                 ",
"                                            h z v P Y  .-.#.Q W Q  .@.#.-...c g 7 7                                             ",
"                                            b n R T W Q O.O.Q Q  .+.-.%.%.X.M b x 7                                             ",
"                                            *.$.o. .Q W Q Q W Q O.-.=.;.@.| $.o.n c                                             ",
"                                            e.>.-.O.Q Y U E W Q @.-.>.>.@. .*.*...b                                             ",
"                                                            W Q @.-.>.w.                                                        ",
"                                                            W Q @.-.>.e.                                                        "
};
