/* XPM */
static char *_84f65cdc9ef42aa9879168f84d8a93e240wDrDvmt1wrlEp[] = {
/* columns rows colors chars-per-pixel */
"32 32 169 2 ",
"   c None",
".  c #12151A",
"X  c #181A1C",
"o  c #202021",
"O  c gray13",
"+  c #202323",
"@  c #222222",
"#  c #202525",
"$  c #262425",
"%  c #242625",
"&  c #242725",
"*  c #2F2B25",
"=  c #262B29",
"-  c #292F2C",
";  c #30292C",
":  c #342D2C",
">  c #342C2F",
",  c #273028",
"<  c #293129",
"1  c #2A312E",
"2  c #2B332F",
"3  c #2F3C2F",
"4  c #3C342F",
"5  c #3E352F",
"6  c #352C30",
"7  c #2D3630",
"8  c #2D3632",
"9  c #2E3732",
"0  c #313C37",
"q  c #333F39",
"w  c #4A3E2D",
"e  c #443932",
"r  c #314031",
"t  c #314131",
"y  c #334433",
"u  c #354B36",
"i  c #374F37",
"p  c #33403A",
"a  c #34423B",
"s  c #36473A",
"d  c #36453E",
"f  c #36493B",
"g  c #385138",
"h  c #3E5D3E",
"j  c #4F4230",
"k  c #4F4137",
"l  c #5E4B3D",
"z  c #604B3A",
"x  c #645034",
"c  c #685336",
"v  c #795E3A",
"b  c #513D43",
"n  c #384940",
"m  c #394A42",
"M  c #394B42",
"N  c #3A4E42",
"B  c #3B4F43",
"V  c #3B5043",
"C  c #3C5143",
"Z  c #3E5644",
"A  c #3E5744",
"S  c #3F5845",
"D  c #3F5945",
"F  c #5A424A",
"G  c #5E454A",
"H  c #405A45",
"J  c #405B45",
"K  c #415946",
"L  c #405D44",
"P  c #405C45",
"I  c #415C45",
"U  c #415D45",
"Y  c #415D46",
"T  c #624E41",
"R  c #624A4A",
"E  c #654D4A",
"W  c #645041",
"Q  c #6C5540",
"!  c #69514A",
"~  c #735A4A",
"^  c #76584A",
"/  c #745A4A",
"(  c #755B4A",
")  c #775D4A",
"_  c #785E4A",
"`  c #436340",
"'  c #426342",
"]  c #436543",
"[  c #426046",
"{  c #426146",
"}  c #436346",
"|  c #446347",
" . c #446547",
".. c #456547",
"X. c #456747",
"o. c #456843",
"O. c #456A45",
"+. c #456847",
"@. c #476C47",
"#. c #476449",
"$. c #466A48",
"%. c #476C48",
"&. c #476D48",
"*. c #4C6B4B",
"=. c #486E49",
"-. c #4B6F4A",
";. c #497149",
":. c #497249",
">. c #4A734A",
",. c #4A744A",
"<. c #4B744A",
"1. c #4B754A",
"2. c #4F714C",
"3. c #4E754C",
"4. c #4D784B",
"5. c #4E7A4C",
"6. c #4F7C4D",
"7. c #557E49",
"8. c #507D4D",
"9. c #527F4D",
"0. c #7F634A",
"q. c #82654A",
"w. c #83664A",
"e. c #88674A",
"r. c #8C6C4A",
"t. c #8D6D4A",
"y. c #8E6E4A",
"u. c #916F4A",
"i. c #92704A",
"p. c #9D784A",
"a. c #A17B4A",
"s. c #A47D4A",
"d. c #A77F4A",
"f. c #56804A",
"g. c #53814E",
"h. c #54834E",
"j. c #55824F",
"k. c #55834F",
"l. c #55844F",
"z. c #55854F",
"x. c #56844E",
"c. c #56854F",
"v. c #568650",
"b. c #588950",
"n. c #588851",
"m. c #598A51",
"M. c #5A8B51",
"N. c #5C8A53",
"B. c #5B8C52",
"V. c #5B8E52",
"C. c #5D9053",
"Z. c #5E9254",
"A. c #609554",
"S. c #619555",
"D. c #619655",
"F. c #629755",
"G. c #629856",
"H. c #639956",
"J. c #649A56",
"K. c #659C57",
"L. c #669E57",
"P. c #679F58",
"I. c #68A058",
"U. c #68A159",
"Y. c #6AA359",
"T. c #6BA55A",
"R. c #A9814A",
"E. c #AA824A",
"W. c #AD844A",
/* pixels */
"                            >.T.T.T.T.4.[ m                     ",
"                        i ,.T.T.T.T.T.T.Z.>.,.<                 ",
"                      ] z.L.T.T.T.T.T.9.5.>.>.<                 ",
"                      g.A.T.T.T.T.T.S.j.5.>.>.y <               ",
"                      T.T.T.T.T.T.T.>.L.Z.,.>.>.h               ",
"                      T.T.T.T.T.V.>.T.4.>.>.>.>.h               ",
"        u ` 7.7.7.f.N.#.3.g.T.g.N.S.g.,.>.>.>.U s               ",
"        o.z.T.T.T.T.T.D #.&.L.>.z.L.,.>.>.>.@.C p               ",
"      >.G.T.T.T.T.T.T.T.2.m >.>.>.>.>.>.>.,.m m m m             ",
"  3 >.T.T.T.T.T.T.T.T.T.T.U.m >.>.>.>.>.} m ,.H.T.T.T.g.]       ",
"  3 >.T.T.T.T.T.T.T.T.T.T.U.m >.>.>.>.L U [ Z.L.T.T.T.S.z.g     ",
"  3 >.T.T.T.T.T.T.T.T.T.Y.L.m >.;.;.;.N H 4.T.T.T.T.T.Y.H.>.    ",
"  3 >.T.T.T.T.T.T.T.T.T.b.>.m m m m m m *.T.T.T.T.T.T.g.>.>.m 1 ",
"  - m ,.G.T.T.T.z.5.T.,.U d O m m m m @.z.T.T.T.T.T.,.Z.H.>.;.y ",
"  # 9 [ j.V.V.V.-.#.V.[ f 9 O 9 7 7 9 @.6.V.T.T.I.V.N.N.b.>.>.3 ",
"    O m +.>.>.>.A B ,.m 2 O O O O O O +.,.,.T.T.F.:.T.g.>.>.>.y ",
"      O p m m m m m m O X . O F F F O d D >.>.>.>.>.,.>.>.>.m 1 ",
"        O & & & % % % b 6 o b F F F O & 9 V >.Z D >.V +.@.V     ",
"                    4 ^ l j F F F R > @ = 0 ..J D ..D [ U 0     ",
"                    ~ W.W.R.F F ! ( F $ O O m $.+.m >.Z p       ",
"                      F r.R.~ ~ t.W.W._ ! F                     ",
"                      ; l q.p.p.s.W.q.5 > ;                     ",
"                        e W a.W.W.W.T                           ",
"                            ~ W.W.W.                            ",
"                            ~ W.i.~                             ",
"                            ( W.i.~                             ",
"                            ( W.i.~                             ",
"                            W.W.i.~                             ",
"                        k ( W.~ ~ ( W.*                         ",
"                      x Q ( u.~ 0.t.i.c w                       ",
"                      W.r.~ ~ ~ t.W.~ R.v                       ",
"                              ~ t.W.                            "
};
