/* XPM */
static char *result[] = {
/* columns rows colors chars-per-pixel */
"64 68 72 1 ",
"  c #040401",
". c #0A0403",
"X c #070804",
"o c #0A0B06",
"O c #0D0E0E",
"+ c #1A1F0E",
"@ c #1A1B1A",
"# c #211810",
"$ c #4C1813",
"% c #793C32",
"& c #6C4239",
"* c #444545",
"= c #98301A",
"- c #9B1D2E",
"; c #AE1E25",
": c #A81E2B",
"> c #B11F25",
", c #B21E28",
"< c #9D202E",
"1 c #932A2D",
"2 c #972234",
"3 c #9A2132",
"4 c #AF2024",
"5 c #A2242E",
"6 c #AB212D",
"7 c #B12026",
"8 c #BF2825",
"9 c #DC3D1E",
"0 c #C62128",
"q c #CD3527",
"w c #DD3C22",
"e c #E03C21",
"r c #D9411E",
"t c #D84123",
"y c #D9463A",
"u c #9A744B",
"i c #B67345",
"p c #BA7444",
"a c #B87549",
"s c #EE5F47",
"d c #ED5E4A",
"f c #F15F49",
"g c #EE6047",
"h c #EF6048",
"j c #F06048",
"k c #D7A35F",
"l c #DCA15F",
"z c #D6A462",
"x c #DAA362",
"c c #D0A569",
"v c #D9A96A",
"b c #DDAE71",
"n c #868684",
"m c #9C9E9C",
"M c #999CA0",
"N c #ACADAA",
"B c #F58D8D",
"V c #EC8F94",
"C c #E4BC80",
"Z c #EAC88B",
"A c #F0CC8F",
"S c #EFCD94",
"D c #F3CF9A",
"F c #EED394",
"G c #EFD29B",
"H c #F2D196",
"J c #F2D19B",
"K c #D6DFE5",
"L c #D9DEE4",
"P c #D8DFE8",
"I c #D1E1E3",
"U c #FCFDFC",
/* pixels */
"++++++++++++++++++++++++++++++++++++++++++++++++++++++++++++++++",
"++++++++++++++++++++++++++++++++++++++++++++++++++++++++++++++++",
"++++++++++++++++++++++++++++++++++++++++++++++++++++++++++++++++",
"++++++++++++++++++++++++++++++++++++++++++++++++++++++++++++++++",
"++++++++++++++++++++++nnnm++++++++++++++++++++++++++++++++++++++",
"+++++++++++++++++++++*MN=%*+++++++++++++++++++++++++++++++++++++",
"++++++++++++++++++++ ULV;0w.           O++++++++++++++++++++++++",
"++++++++++++++++++++ KB;--:tddwdd9dr9r91  ++++++++++++++++++++++",
"+++++++++++++++++++ LL,23332sjhw9dwwwwwww8  ++++++++++++++++++++",
"+++++++++++++++++++ PI>2-633hjwwwwwwwwwwww9ww ++++++++++++++++++",
"+++++++++++++++++++ PI;2-763fewwwwwwwwwwww9w>9 +++++++++++++++++",
"+++++++++++++++++++ LI;36-53gweewww9>          +++++++++++++++++",
"+++++++++++++++++++ UI>77>53s9ewwwww +++++++++++++++++++++++++++",
"+++++++++++++++++++ UI>,>>7<fwwewwww +++++++++++++++++++++++++++",
"+++++++++++++++++++ UU7>>7>3ffwewwww +++++++++++++++++++++++++++",
"+++++++++++++++++++ UUB74757fsfsffff +++++++++++++++++++++++++++",
"++++++++++++++++++++ UU>;;qw  &&&% X++++++++++++++++++++++++++++",
"++++++++++++++++++++ UUB4w$ + ixip +++++++++++++++++++++++++++++",
"+++++++++++++++++++++ UUy +++XiDcGG ++++++++++++++++++++++++++++",
"++++++++++++++++++++++@@@++++XzGzJDF +++++++++++++++++++++++++++",
"+++++++++++++++++++++++++++++OzDzJJC +++++++++++++++++++++++++++",
"+++++++++++++++++++++++++++++XzDZJG#++++++++++++++++++++++++++++",
"+++++++++++++++++++++++++++++XzDJJG ++++++++++++++++++++++++++++",
"+++++++++++++++++++++++++++++XzDJJk ++++++++++++++++++++++++++++",
"+++++++++++++++++++++++++++++XzDJJ +++++++++++++++++++++++++++++",
"+++++++++++++++++++++++++++++XcDJJ +++++++++++++++++++++++++++++",
"+++++++++++++++++++++++++++++XzDJJX+++++++++++++++++++++++++++++",
"+++++++++++++++++++++++++++++XzxJJ +++++++++++++++++++++++++++++",
"+++++++++++++++++++++++++++++XzGzJ +++++++++++++++++++++++++++++",
"+++++++++++++++++++++++++++++XzJkJ +++++++++++++++++++++++++++++",
"+++++++++++++++++++++++++++++ zGzJ +++++++++++++++++++++++++++++",
"+++++++++++++++++++++++++++++XzGkJ +++++++++++++++++++++++++++++",
"+++++++++++++++++++++++++++++XzDzJ +++++++++++++++++++++++++++++",
"+++++++++++++++++++++++++++++XzJzJ +++++++++++++++++++++++++++++",
"+++++++++++++++++++++++++++++XxJzJ.+++++++++++++++++++++++++++++",
"+++++++++++++++++++++++++++++ocDzJX+++++++++++++++++++++++++++++",
"+++++++++++++++++++++++++++++XzDkJ +++++++++++++++++++++++++++++",
"+++++++++++++++++++++++++++++ozDAv +++++++++++++++++++++++++++++",
"+++++++++++++++++++++++++++++XzDJJ +++++++++++++++++++++++++++++",
"+++++++++++++++++++++++++++++XzDJJ +++++++++++++++++++++++++++++",
"+++++++++++++++++++++++++++++XzDJJ +++++++++++++++++++++++++++++",
"+++++++++++++++++++++++++++++XaDJJ.+++++++++++++++++++++++++++++",
"+++++++++++++++++++++++++++++XxzJJ +++++++++++++++++++++++++++++",
"+++++++++++++++++++++++++++++ zDkJ +++++++++++++++++++++++++++++",
"+++++++++++++++++++++++++++++XcJzJ +++++++++++++++++++++++++++++",
"+++++++++++++++++++++++++++++XzJzJ +++++++++++++++++++++++++++++",
"+++++++++++++++++++++++++++++XzDkJX+++++++++++++++++++++++++++++",
"+++++++++++++++++++++++++++++ zDzJ +++++++++++++++++++++++++++++",
"+++++++++++++++++++++++++++++ zGkJ +++++++++++++++++++++++++++++",
"+++++++++++++++++++++++++++++XzJzJ +++++++++++++++++++++++++++++",
"+++++++++++++++++++++++++++++ozDkH +++++++++++++++++++++++++++++",
"+++++++++++++++++++++++++++++XzDJb +++++++++++++++++++++++++++++",
"+++++++++++++++++++++++++++++OkJJJ.+++++++++++++++++++++++++++++",
"+++++++++++++++++++++++++++++oSJJJ +++++++++++++++++++++++++++++",
"++++++++++++++++++++++++++++ vJJJJ +++++++++++++++++++++++++++++",
"++++++++++++++++++++++++++++.HJxJ ++++++++++++++++++++++++++++++",
"+++++++++++++++++++++++++++OxJJxJ ++++++++++++++++++++++++++++++",
"+++++++++++++++++++++++++++OJJJxJ ++++++++++++++++++++++++++++++",
"++++++++++++++++++++++++++*cGJJxJ ++++++++++++++++++++++++++++++",
"++++++++++++++++++++++++++*cGJzJ +++++++++++++++++++++++++++++++",
"++++++++++++++++++++++++++uJJJzJ +++++++++++++++++++++++++++++++",
"++++++++++++++++++++++++++uDJxzJ +++++++++++++++++++++++++++++++",
"++++++++++++++++++++++++++&JJlHJ +++++++++++++++++++++++++++++++",
"++++++++++++++++++++++++++*akzJF++++++++++++++++++++++++++++++++",
"+++++++++++++++++++++++++++OaiD+++++++++++++++++++++++++++++++++",
"++++++++++++++++++++++++++++  ++++++++++++++++++++++++++++++++++",
"++++++++++++++++++++++++++++++++++++++++++++++++++++++++++++++++",
"++++++++++++++++++++++++++++++++++++++++++++++++++++++++++++++++"
};
