/* XPM */
static char *result[] = {
/* columns rows colors chars-per-pixel */
"66 64 224 2 ",
"   c #050200",
".  c #0B0100",
"X  c #040904",
"o  c #0D0A07",
"O  c #0D0B0A",
"+  c #130301",
"@  c #190502",
"#  c #130903",
"$  c #1C0C05",
"%  c #140D0B",
"&  c #190F0D",
"*  c #1C110A",
"=  c #1A1F0E",
"-  c #161614",
";  c #1B1513",
":  c #1F1A18",
">  c #220905",
",  c #220D05",
"<  c #25140C",
"1  c #2B150B",
"2  c #2A1A0E",
"3  c #371A0E",
"4  c #251B13",
"5  c #2B1D12",
"6  c #311D13",
"7  c #34210F",
"8  c #2A2315",
"9  c #2D211E",
"0  c #322212",
"q  c #3B2415",
"w  c #34231A",
"e  c #30281F",
"r  c #3A2B1B",
"t  c #31311C",
"y  c #2D1F20",
"u  c #2D2422",
"i  c #2E2A28",
"p  c #362C26",
"a  c #332E2C",
"s  c #2E312D",
"d  c #333322",
"f  c #36312C",
"g  c #343431",
"h  c #3E3635",
"j  c #412614",
"k  c #4A2C12",
"l  c #472A1B",
"z  c #49341A",
"x  c #4D321D",
"c  c #51341B",
"v  c #523C1D",
"b  c #5A3C1C",
"n  c #633D09",
"m  c #422B21",
"M  c #433322",
"N  c #4C3622",
"B  c #483B28",
"V  c #4B3C2B",
"C  c #513724",
"Z  c #523A24",
"A  c #473D36",
"S  c #433D3C",
"D  c #503F32",
"F  c #784E0F",
"G  c #6A4413",
"H  c #6E4810",
"J  c #724B1D",
"K  c #53442F",
"L  c #5A4629",
"P  c #494134",
"I  c #4D423B",
"U  c #554331",
"Y  c #584B39",
"T  c #664A27",
"R  c #6D4E2A",
"E  c #714A26",
"W  c #68522A",
"Q  c #6E512C",
"!  c #73552B",
"~  c #7A5728",
"^  c #745B2D",
"/  c #675536",
"(  c #6C5433",
")  c #6E5A3C",
"_  c #765B34",
"`  c #765C35",
"'  c #755F3D",
"]  c #7A6436",
"[  c #494642",
"{  c #4C4B49",
"}  c #564C45",
"|  c #57524C",
" . c #565151",
".. c #5B5752",
"X. c #695C47",
"o. c #635B55",
"O. c #7A6543",
"+. c #796944",
"@. c #63605C",
"#. c #756957",
"$. c #875A19",
"%. c #896519",
"&. c #976819",
"*. c #A6751E",
"=. c #BB7F1F",
"-. c #845E2B",
";. c #896526",
":. c #8D662B",
">. c #8D6A2D",
",. c #936B24",
"<. c #936B2B",
"1. c #976B29",
"2. c #9C7227",
"3. c #97732B",
"4. c #9B722B",
"5. c #886433",
"6. c #866935",
"7. c #8B6B32",
"8. c #81643B",
"9. c #856D3C",
"0. c #8A6B3D",
"q. c #946C31",
"w. c #956A36",
"e. c #8D7132",
"r. c #947334",
"t. c #9A7634",
"y. c #9B793B",
"u. c #A07026",
"i. c #A77C27",
"p. c #AA7B25",
"a. c #A57A2A",
"s. c #AB7D2A",
"d. c #A47A37",
"f. c #AB7D34",
"g. c #856B44",
"h. c #856D47",
"j. c #8A754D",
"k. c #9B7D46",
"l. c #987B48",
"z. c #947E5A",
"x. c #A37C42",
"c. c #A07E48",
"v. c #AE812E",
"b. c #B78426",
"n. c #AD8432",
"m. c #A6823F",
"M. c #AA843B",
"N. c #B38534",
"B. c #BA8436",
"V. c #B58B35",
"C. c #B78837",
"Z. c #B58B3B",
"A. c #BA8D3A",
"S. c #BE933C",
"D. c #BF9A3F",
"F. c #D18E26",
"G. c #CA952E",
"H. c #D5972E",
"J. c #CC9632",
"K. c #C59538",
"L. c #C5993E",
"P. c #CB9C3B",
"I. c #D19736",
"U. c #CDA23F",
"Y. c #9E824E",
"T. c #99885A",
"R. c #A78544",
"E. c #AE8945",
"W. c #B38A41",
"Q. c #BB8D43",
"!. c #B38A49",
"~. c #BA8F4F",
"^. c #AB904D",
"/. c #B79344",
"(. c #BE9342",
"). c #BE974E",
"_. c #BE9A4A",
"`. c #A7895A",
"'. c #B48F5D",
"]. c #AB965D",
"[. c #BB9555",
"{. c #BB9A52",
"}. c #B79558",
"|. c #B79A5C",
" X c #9C8766",
".X c #A9966A",
"XX c #B09464",
"oX c #BA9B64",
"OX c #A79371",
"+X c #B19E74",
"@X c #C49545",
"#X c #C49A44",
"$X c #CB9D43",
"%X c #CB9846",
"&X c #C4994C",
"*X c #C29B52",
"=X c #C29758",
"-X c #CAA344",
";X c #CBA44C",
":X c #D1A545",
">X c #D2A54B",
",X c #D9AA4F",
"<X c #CBA758",
"1X c #D4AA56",
"2X c #D5B05D",
"3X c #E7BB5E",
"4X c #C3A866",
"5X c #DAB562",
"6X c #CAAD73",
"7X c #CEB470",
"8X c #D8BA76",
"9X c #DDBE7C",
"0X c #E4BA64",
"qX c #E7BE69",
"wX c #E4C36D",
"eX c #E9C36C",
"rX c #F0CA6C",
"tX c #ECC673",
"yX c #E3C67E",
"uX c #EAC978",
"iX c #F2CA72",
"pX c #D8C08B",
"aX c #DFC891",
"sX c #E8CA86",
/* pixels */
"= = = = = = = = = = = = = = = = = = = = = = = = = = = = = = = = = = = = = = = = = = = = = o     . . + +   = = = = = = = = = = = = = ",
"= = = = = = = = = = = = = = = = = = = = = = = = = = = = = = = = = = = = = = = = = = = = = r q q j j q q r = = = = = = = = = = = = = ",
"= = = = = = = = = = = = = = = = = = = = = = = = = = = = = = = = = = = = = = = = =   . + 2 XX'.[.[.[.=X'.XX< .   o = = = = = = = = = ",
"= = = = = = = = = = = = = = = = = = = = = = = = = = = = = = = = = = = = = = = = = w q 6 l !.Q.Q.Q.A.A.Q.E.j 2 < 0 = = = = = = = = = ",
"= = = = = = = = = = = = = = = = = = = = = = = = = = = = = = = = = = = = = = =   r aX9X{.~.<.1.1.:.,.,.,.1./.}.}.].0   = = = = = = = ",
"= = = = = = = = = = = = = = = = = = = = = = = = = = = = = = = = = = = = = = = 2 L yX3XZ.~.5.` ' ' ] ] ` 5.~.K.L._.k * = = = = = = = ",
"= = = = = = = = = = = = = = = = = = = = = = = = = = = = = = = = = = = = = . C sXwXD.V.%.Q @ . . . . + . @ -.&.K.U.D.].8 X = = = = = ",
"= = = = = = = = = = = = = = = = = = = = = = = = = = = = = = = = = = = = = < T wX3XV.m.] / - ; - - ; 4 ; 1 _ -.A.G.G.{.0 . = = = = = ",
"= = = = = = = = = = = = = = = = = = = = = = = = = = = = = = = = = = = = Y pX5X$XS.,.^ # e = = = = = = = = 6 , x.P.G._.7   = = = = = ",
"= = = = = = = = = = = = = = = = = = = = = = = = = = = = = = = = = = = . D sX0X(.E.] / < a = = = = = = = = y 5 l.E.A._.q $ = = = = = ",
"= = = = = = = = = = = = = = = = = = = = = = = = = = = = = = = = = = = . x =X(.,.! $ p = = = = = = = = = = = = m 1 R.).7.O.i - = = = ",
"= = = = = = = = = = = = = = = = = = = = = = = = = = = = = = = = = = = $ x [.!.:./ O i = = = = = = = = = = = = 6 @ R.{.r.h.4   = = = ",
"= = = = = = = = = = = = = = = = = = = = = = = = = = = = = = = = = ; V `.x.w._ > f = = = = = = = = = = = = = = 9 + k.*X4.g.4   = = = ",
"= = = = = = = = = = = = = = = = = = = = = = = = = = = = = = = = =   C |.B.1.R . a = = = = = = = = = = = = = = y @ k.&X4.0.5   = = = ",
"= = = = = = = = = = = = = = = = = = = = = = = = = = = = = = = = = . C =XB.:.( . a = = = = = = = = = = = = = = y @ k.#X2.0.5   = = = ",
"= = = = = = = = = = = = = = = = = = = = = = = = = = = = = = = = = . N =XB.,.R . a = = = = = = = = = = = = = = y + l.&X2.9.8   = = = ",
"= = = = = = = = = = = = = = = = = = = = = = = = = = = = = = = = = . C =XB.,.W   s = = = = = = = = = = = = = = u + k.).3.9.5   = = = ",
"= = = = = = = = = = = = = = = = = = = = = = = = = = = = = = = = = . N =XB.:.W   s = = = = = = = = = = = = = = 6 > x.).r.O.5   = = = ",
"= = = = = = = = = = = = = = = = = = = = = = = = = = = = = = = = =   N |.B.:.Q . s = = = = = = = = = = = = { A  X'.d.t.k 5 = = = = = ",
"= = = = = = = = = = = = = = = = = = = = = = = = = = = = = = = = = . M oXW.<.Q . f = = = = = = = = = = = = ; > 6XtXa.;.1 . = = = = = ",
"= = = = = = = = = = = = = = = = = = = = = = = = = = = = = = = = = = = N Q E.k.L U [ @.= = = = = = = = { Y z.`.<X1X3.9.< + = = = = = ",
"= = = = = = = = = = = = = = = = = = = = = = = = = = = = = = = = = = =   l {.Z.3.! . p = = = = = = = = o @ 8XtX>XD.r.h.< . = = = = = ",
"= = = = = = = = = = = = = = = = = = = = = = = = = = = = = = = = = = = . z ;XG.V.t._ ) |  .| |  . . .| X.8.<X1XN.m.z r = = = = = = = ",
"= = = = = = = = = = = = = = = = = = = = = = = = = = = = = = = = = = = + x #XG.H.J.#XY.+ . + . . . + + '.=X%X@Xw.] = . = = = = = = = ",
"= = = = = = = = = = = = = = = = = = = = = = = = = = = = = = = = = o.X.) -.p.=.H.F.I.Q.! ! Q ( ( ( R ( f.f.f.d.b z = = = = = = = = = ",
"= = = = = = = = = = = = = = = = = = = = = = = = = = = = = = = = = + c _.Z.&.*.%XL.%X&X_._._._._.*X=X=Xq.5.5.g.< . = = = = = = = = = ",
"= = = = = = = = = = = = = = = = = = = = = = = = = = = = = = = = = O.y.#XA.&.$.E R T ~ M.n.v.v.v.f.d.c.c C N V = = = = = = = = = = = ",
"= = = = = = = = = = = = = = = = = = = = = = = = = = = = = = = . / uX3XL.Z.:.E @ + . < 9.7.<.:.:.:.7.g.+ .   O = = = = = = = = = = = ",
"= = = = = = = = = = = = = = = = = = = = = = = = = = = = = = #.) k.5X:XN.>.v U = = = = V Z C Z Z Z C U = = = = = = = = = = = = = = = ",
"= = = = = = = = = = = = = = = = = = = = = = = = = = = = = . ' sX5X@XZ.<.T . A = = = = + . . .   . . . = = = = = = = = = = = = = = = ",
"= = = = = = = = = = = = = = = = = = = = = = = = = = = = = L l.5X$XW.w.L U } = = = = = = = = = = = = = = = = = = = = = = = = = = = = ",
"= = = = = = = = = = = = = = = = = = = = = = = = = = = . O.sX5XL.N.>.L + I = = = = = = = = = = = = = = = = = = = = = = = = = = = = = ",
"= = = = = = = = = = = = = = = = = = = = = = = = = = = K k.0X>XV.7.L Y S = = = = = = = = = = = = = = = = = = = = = = = = = = = = = = ",
"= = = = = = = = = = = = = = = = = = = = = = = = ... +.yX2XL.v.,.L + = = = = = = = = = = = = = = = = = = = = = = = = = = = = = = = = ",
"= = = = = = = = = = = = = = = = = = = = = = = = X.N c.0X>XC.q.! V g = = = = = = = = = = = = = = = = = = = = = = = = = = = = = = = = ",
"= = = = = = = = = = = = = = = = = = = = = = {   j.sX1XL.v.,.c . = = = = = = = = = = = = = = = = = = = = = = = = = = = = = = = = = = ",
"= = = = = = = = = = = = = = = = = = = = = = ..r Y.qX-XA.q.! D i = = = = = = = = = = = = = = = = = = = = = = = = = = = = = = = = = = ",
"= = = = = = = = = = = = = = = = = = = = I   T.sX2XD.i.1.b # = = = = = = = = = = = = = = = = = = = = = = = = = = = = = = = = = = = = ",
"= = = = = = = = = = = = = = = = = = = = } 8 Y.eX:XA.t.` B 9 = = = = = = = = = = = = = = = = = = = = = = = = = = = = = = = = = = = = ",
"= = = = = = = = = = = = = = = = = = P # T.sX1X#Xv.,.z # = = = = = = = = = = = = = = = = = = = = = = = = = = = = = = = = = = = = = = ",
"= = = = = = = = = = = = = = = = = = I 7 ^.eX>X/.q.^ B : = = = = = = = = = = = = = = = = = = = = = = = = = = = = = = = = = = = = = = ",
"= = = = = = = = = = = = = = = = h % T.8X-XU.v.3.c # = = = = = = = = = = = = = = = = = = = = = = = = = = = = = = = = = = = = = = = = ",
"= = = = = = = = = = = = = = = = S 1 }.rX:XS.t.] p ; = = = = = = = = = = = = = = = = = = = = = = = = = = = = = = = = = = = = = = = = ",
"= = = = = = = = = = = = = = g % OX9X;XP.b.,.k $ = = = = = = = = = = = = = = = = = = = = = = = = = = = = = = = = = = = = = = = = = = ",
"= = = = = = = = = = = = = = u + oXiX,XK.2.,.q . = = = = = = = = = = = = = = = = = = = = = = = = = = = = = = = = = = = = = = = = = = ",
"= = = = = = = = = = = = s & +X9X<X$Xs.u.F H ] ] z * = = = = = = = = = = = = = = = = = = = = = = = = = = = = = = = = = = = = = = = = ",
"= = = = = = = = = = = = u + 4XtX>X@Xd.w.J G ~ e.r . = = = = = = = = = = = = = = = = = = = = = = = = = = = = = = = = = = = = = = = = ",
"= = = = = = = = = = g 5 .X7X;X$Xs.q.k , L ~ m./.R.T.Y 4 = = = = = = = = = = = = = = = = = = = = = = = = = = = = = = = = = = = = = = ",
"= = = = = = = = = = 8 $ 4XrX:X#Xd.g.6 + U 7.W.L.@X|.K o = = = = = = = = = = = = = = = = = = = = = = = = = = = = = = = = = = = = = = ",
"= = = = = = = = g p .X4X-X-Xi.3.k 1 = = I 1 7.&Xn.r.z . = = = = = = = = = = = = = = = = = = = = = = = = = = = = = = = = = = = = = = ",
"= = = = = = = - % # 7XeX-XK.2.:.3 . = = A + O.oXR.0.p = = = = = = = = = = = = = = = = = = = = = = = = = = = = = = = = = = = = = = = ",
"= = = = = = S f OXoX<X-Xv.2.H G R ( V f = = } w 5 2 = = = = = = = = = = = = = = = = = = = = = = = = = = = = = = = = = = = = = = = = ",
"= = = = = = + + 9XiX$X@X3.<.G n ;.e.7 . = = |       = = = = = = = = = = = = = = = = = = = = = = = = = = = = = = = = = = = = = = = = ",
"= = = = [ A h.7.>X:Xp.u.J J ~ $.s.V.t.h.Y P = = = = = = = = = = = = = = = = = = = = = = = = = = = = = = = = = = = = = = = = = = = = ",
"= = = = O # XX&X$XL.,.:.G n $.&.b.I.#X'.M   = = = = = = = = = = = = = = = = = = = = = = = = = = = = = = = = = = = = = = = = = = = = ",
"= = = = O # j.d.a.t.k j ! $.s.=.F.H.v.k.r   = = = = = = = = = = = = = = = = = = = = = = = = = = = = = = = = = = = = = = = = = = = = ",
"= = = = O o +.] 5.] * . ) 6.S.J.H.K.q.g.w   = = = = = = = = = = = = = = = = = = = = = = = = = = = = = = = = = = = = = = = = = = = = ",
"= = = = = = d t t d = = V k R.K.b.a.b l = = = = = = = = = = = = = = = = = = = = = = = = = = = = = = = = = = = = = = = = = = = = = = ",
"= = = = = = o     X = = 9 + z.).4.9.6 . = = = = = = = = = = = = = = = = = = = = = = = = = = = = = = = = = = = = = = = = = = = = = = ",
"= = = = = = = = = = = = = = } L v M = = = = = = = = = = = = = = = = = = = = = = = = = = = = = = = = = = = = = = = = = = = = = = = = ",
"= = = = = = = = = = = = = = i . . . = = = = = = = = = = = = = = = = = = = = = = = = = = = = = = = = = = = = = = = = = = = = = = = = ",
"= = = = = = = = = = = = = = = = = = = = = = = = = = = = = = = = = = = = = = = = = = = = = = = = = = = = = = = = = = = = = = = = = = ",
"= = = = = = = = = = = = = = = = = = = = = = = = = = = = = = = = = = = = = = = = = = = = = = = = = = = = = = = = = = = = = = = = = = ",
"= = = = = = = = = = = = = = = = = = = = = = = = = = = = = = = = = = = = = = = = = = = = = = = = = = = = = = = = = = = = = = = = = = "
};
