/* XPM */
static char *result[] = {
/* columns rows colors chars-per-pixel */
"65 64 127 2 ",
"   c #010101",
".  c #080606",
"X  c #070806",
"o  c #0B0907",
"O  c #0B0B0A",
"+  c #150D0A",
"@  c #0E110C",
"#  c #13100E",
"$  c #1C120D",
"%  c #1A1F0E",
"&  c #121212",
"*  c #191713",
"=  c #1A1C13",
"-  c #1A1B1A",
";  c #2F1D19",
":  c #371E17",
">  c #1A2015",
",  c #1D2218",
"<  c #22241D",
"1  c #242C1D",
"2  c #3A221A",
"3  c #252423",
"4  c #292A29",
"5  c #342A25",
"6  c #3F2A22",
"7  c #372F29",
"8  c #392E29",
"9  c #2B3423",
"0  c #383427",
"q  c #3C312C",
"w  c #3D392D",
"e  c #3F3732",
"r  c #682E1D",
"t  c #7A2D18",
"y  c #7C351E",
"u  c #4D2F26",
"i  c #512D23",
"p  c #5B2F22",
"a  c #4D3325",
"s  c #41302A",
"d  c #463F2B",
"f  c #543226",
"g  c #5A3225",
"h  c #573B2C",
"j  c #5B3C2C",
"k  c #413631",
"l  c #453A35",
"z  c #483A33",
"x  c #5B422F",
"c  c #46552F",
"v  c #464436",
"b  c #47423F",
"n  c #4B433B",
"m  c #444C3C",
"M  c #4A4C38",
"N  c #5C4431",
"B  c #544D34",
"V  c #5D4A34",
"C  c #51493C",
"Z  c #5F4E39",
"A  c #495832",
"S  c #4F523F",
"D  c #4D5838",
"F  c #5A5237",
"G  c #5E553A",
"H  c #5C5A3D",
"J  c #604B37",
"K  c #614E39",
"L  c #635C3F",
"P  c #4F603E",
"I  c #504A47",
"U  c #594F4A",
"Y  c #4C5642",
"T  c #5C5641",
"R  c #535D46",
"E  c #645E44",
"W  c #695D58",
"Q  c #566345",
"!  c #5C6442",
"~  c #576A45",
"^  c #5C6A46",
"/  c #576548",
"(  c #5E644E",
")  c #5D6D4D",
"_  c #5E724A",
"`  c #5E6B50",
"'  c #666246",
"]  c #606C45",
"[  c #67654B",
"{  c #6D674D",
"}  c #6B6A4D",
"|  c #70694F",
" . c #62744E",
".. c #606550",
"X. c #626E53",
"o. c #6A6E52",
"O. c #667655",
"+. c #6C7455",
"@. c #6A7955",
"#. c #6C7B5B",
"$. c #707758",
"%. c #717F5B",
"&. c #6A6B6A",
"*. c #6E7C60",
"=. c #82472D",
"-. c #8B6244",
";. c #8E6B4B",
":. c #857E5F",
">. c #70805F",
",. c #778A5F",
"<. c #768565",
"1. c #788664",
"2. c #7B8964",
"3. c #89805F",
"4. c #8DAA5F",
"5. c #8D8A67",
"6. c #84906B",
"7. c #89926D",
"8. c #93946F",
"9. c #909B72",
"0. c #9D9C74",
"q. c #99A279",
"w. c #9BB171",
"e. c #A2A97F",
"r. c #B0B894",
"t. c #B5C094",
"y. c #BEC49F",
/* pixels */
"% % % % % % % % % % % % % % % % % % % % % 3 < 6 6 2 : : : : : : : : : ; = - % % % % % % % % % % % % % % % % % % % % % % % % % % % ",
"% % % % % % % % % % % % % % % % % % % % &   o j j f i i i i i i i i i :     % % % % % % % % % % % % % % % % % % % % % % % % % % % ",
"% % % % % % % % % % % % % % % % % % % &.&   + j j f i i i i i i i i i 2   . % % = % % % % % % % % % % % % % % % % % % % % % % % % ",
"% % % % % % % % % % % % % % % % % %     a h x _ _ x j j i i i i i j j V _ _ @   & % % % % % % % % % % % % % % % % % % % % % % % % ",
"% % % % % % % % % % % % % % % % % 4     a j V _ _ V j j u i i i i j j V _ _ @   @ % % % % % % % % % % % % % % % % % % % % % % % % ",
"% % % % % % % % % % % % % % % 4 3 ; $ $ a j x _ _ V j g i i f f f F F H _ _ 9 1 9 % % % % % % % % % % % % % % % % % % % % % % % % ",
"% % % % % % % % % % % % % % % .   + i i j x x _ _ V j j i i f j j ^ _ _ _ _ _ _ Q     % % % % % % % % % % % % % % % % % % % % % % ",
"% % % % % % % % % % % % % % % .   + i i j j V _ _ V j j i i f j j _ _ _ _ _ _ _ D     % % % % % % % % % % % % % % % % % % % % % % ",
"% % % % % % % % % % % % % % % .   + i i j j N _ _ V j j f j G O. ._ _ _ _ _ _ _ P     % % % % % % % % % % % % % % % % % % % % % % ",
"% % % % % % % % % % % % % % % .   + i i j j N _ _ Z j j j j E O.+._ _ _ _ _ _ _ P     % % % % % % % % % % % % % % % % % % % % % % ",
"% % % % % % % % % % % % % % % .   + f i j N V _ _ V j j J V ' O.O. ._  ._ _ _ _ D     % % % % % % % % % % % % % % % % % % % % % % ",
"% % % % % % % % % % % % % % % X   $ j j ^ _ _ O.O.Z j j %.%.>.>.>.O.O.O._ _ _ _ Q     % % % % % % % % % % % % % % % % % % % % % % ",
"% % % % % % % % % % % % % % % X   $ j j ^ _ _ @.O.Z j j #.>.>.>.>.O.O.O._ _ _ _ P     % % % % % % % % % % % % % % % % % % % % % % ",
"% % % % % % % % % % % % % % % X   = ! ! O.O.O.*.#.J j N <.#.>.>.>.#.#.#. .O. ._ P     % % % % % % % % % % % % % % % % % % % % % % ",
"% % % % % % % % % % % % % % % X   > _ _ O.O.O.*.%.J j N %.<.#.<.>.>.>.#.O.O._ _ P     % % % % % % % % % % % % % % % % % % % % % % ",
"% % % % % % % % % % % % % % % X   > _ _ ) ) ` #.O.K j J #.#.#.#.>.@.O.O._ ` _ _ P     % % % % % % % % % % % % % % % % % % % % % % ",
"% % % % % % % % % % % % % % % X   , O.@.@         R >.#.j j E <.>.X         / O.Q     % % % % % % % % % % % % % % % % % % % % % % ",
"% % % % % % % % % % % % % % = X   , O.@.@         R >.#.j j E %.>..         / O.Q     % % % % % % % % % % % % % % % % % % % % % % ",
"% % % % % % % % % % % % % % % X   , O.O...[ R A c O.%.#.j j E %.>.A c D ( ( O.O.Q     % % % % % % % % % % % % % % % % % % % % % % ",
"% % % % % % % % % % % % % % % X   , O.O.r.y.r.4.4.,.>.%.j j E <.#.4.4.w.y.y.<.O.Q     % % % % % % % % % % % % % % % % % % % % % % ",
"% % % % % % % % % % % % % % = .   , @.@.r.y.t.4.4.,.>.#.j j E >.<.4.4.w.y.y.<.O.Q     % % % % % % % % % % % % % % % % % % % % % % ",
"% % % % % % % % % % % % % % % X   , >.>.1.1.<.<.>.>.>.>.$.@.E x x #.>.>.1.1.>.#.`     % % % % % % % % % % % % % % % % % % % % % % ",
"% % % % % % % % % % % % % % % X   , >.>.>.>.>.>.>.>.>.>.<.#.' j j $.>.>.>.>.#.<.)     % % % % % % % % % % % % % % % % % % % % % % ",
"% % % % % % % % % % % % % % % X   , @.@.>.>.>.>.>.>.>.>.>.>.[ J K o.+.@.#.<.#.#./     % % % % % % % % % % % % % % % % % % % % % % ",
"% % % % % % % % % % % % % % % X   > _ _ #.>.>.>.>.>.>.>.#.>.>.>.>.x j K >.>._ _ Q     % % % % % % % % % % % % % % % % % % % % % % ",
"% % % % % % % % % % % % % % % X   = _ _ #.>.>.>.>.>.>.>.>.>.>.>.%.x j J >.>. ._ D     % % % % % % % % % % % % % % % % % % % % % % ",
"% % % % % % % % % % % % % % % X   # n v _  .@.q.q.2.>.>.9.q.6.>.<.8.8.:.J V M n w     % % % % % % % % % % % % % % % % % % % % % % ",
"% % % % % % % % % % % % % % %     & l l ^ _ @.e.r.2.>.,.r.q.7.>.#.q.r.3.j j z l q     % % % % % % % % % % % % % % % % % % % % % % ",
"% % % % % % % % % % % % % % % .   # l l Q ^  .q.9.2.,.1.0.0.5.<.1.8.8.5.j j l l 7     % % % % % % % % % % % % % % % % % % % % % % ",
"% % % % % % % % % % % % % % = X   # l l q q k _ ^ 9.e.0.t t ;.e.r.y t r 8 q k l q     % % % % % % % % % % % % % % % % % % % % % % ",
"% % % % % % % % % % % % % % % X   # l l q q l _ _ 9.e.q.t t ;.e.q.y t r q q l l 7     % % % % % % % % % % % % % % % % % % % % % % ",
"% % % % % % % % % % % % % % % X   + l l q q w M M @.,.3.t t =.-.-.p p i q q k l q     % % % % % % % % % % % % % % % % % % % % % % ",
"% % % % % % % % % % % % % % = X   # l l s q 8 q q Q _ ] t t t t t s q q q s l l 7     % % % % % % % % % % % % % % % % % % % % % % ",
"% % % % % % % % % % % % % % % .   # l l e q q q q / _ ] t t t t t 6 q q q 8 l l q     % % % % % % % % % % % % % % % % % % % % % % ",
"% % % % % % % % % % % % % % % X   + i i 8 q q q q q q s 8 s s s q q q q q q k l 7     % % % % % % % % % % % % % % % % % % % % % % ",
"% % % % % % % % % % % % % % % .   + i i s q q q q q q q q q q q q q q q q 8 l l q     % % % % % % % % % % % % % % % % % % % % % % ",
"% % % % % % % % % % % % % % % X   $ V V q 7 8 q q q q 8 a u s q q n n v 8 8 l l 7     % % % % % % % % % % % % % % % % % % % % % % ",
"% % % % % % % % % % % % % % % X   < <.<.w 5 5 q q q q s t t p q q #.>.( 5 5 k l q     % % % % % % % % % % % % % % % % % % % % % % ",
"% % % % % % % % % % % % % % = .   < <.<.e 5 5 8 q q q s t t p q q #.%.( 5 5 k z 7     % % % % % % % % % % % % % % % % % % % % % % ",
"% % % % % % % % % % % % % & & 7 q q I I + . + 8 5 5 5 8 6 6 C ` ` #.#...k k l l q     % % % % % % % % % % % % % % % % % % % % % % ",
"% % % % % % % % % % % % %     e l l l l .   . 5 5 5 5 5 5 5 S #.@.#.#.( l l l l e     = % % % % % % % % % % % % % % % % % % % % % ",
"% % % % % % % % % % % % %     s l l l l .   . 5 5 5 5 5 5 < S #.#.O.X.R l l l l q     % % % % % % % % % % % % % % % % % % % % % % ",
"% % % % % % % % % % % % %     e l l l l .   . 5 5 5 5 5 5 5 C #.#.7 5 8 l l l l q     % % % % % % % % % % % % % % % % % % % % % % ",
"% % % % % % % % % % % % %     e l l l l o   . 5 5 5 5 5 5 5 S #.#.8 5 8 l l l l 7     % % % % % % % % % % % % % % % % % % % % % % ",
"% % % % % % % % % % % % %     e l l l l .   . 5 5 5 5 5 5 5 0 v v 5 5 8 l l l l q     % % % % % % % % % % % % % % % % % % % % % % ",
"% % % % % % % % % % % % %     e l l l l o   . 5 5 5 5 5 5 5 5 5 5 4 5 8 l l l l q     % % % % % % % % % % % % % % % % % % % % % % ",
"% % % % % % % % % % % % %     l l n l l O   o 5 5 5 5 5 5 5 5 5 5 5 5 q l l l l q     % % % % % % % % % % % % % % % % % % % % % % ",
"% % % % % % % % % % % % %     *.<.<.<.1.' G L L L L L L L L L L L L L [ 1.1.<.<.`     % % % % % % % % % % % % % % % % % % % % % % ",
"% % % % % % % % % % % % %     #.1.<.<.1.[ E L L L L L L L L L L L L L } <.<.1.1.O.    % % % % % % % % % % % % % % % % % % % % % % ",
"% % % % % % % % % % % % % 4 4 Y Y Y Y Y L L L L L L L L L L L L L L L ' $.$.R Y m - - % % % % % % % % % % % % % % % % % % % % % % ",
"% % % % % % % % % % % % % % % %         B L L L L L L L F F L L L L L L E E O   O = % % % % % % % % % % % % % % % % % % % % % % % ",
"% % % % % % % % % % % % % % % %         B E L L L L L L F F F L L L L L L L O   O % % % % % % % % % % % % % % % % % % % % % % % % ",
"% % % % % % % % % % % % % % % % % %     B L E L L L F B o o w } | | | { { { #   @ % % % % % % % % % % % % % % % % % % % % % % % % ",
"% % % % % % % % % % % % % % % % % %     V L L L L F F B     0 | | | | | | | #   & = % % % % % % % % % % % % % % % % % % % % % % % ",
"% % % % % % % % % % % % % % % % % %     B L L L L B d d & & 0 T G } } } } } O   & % % % % % % % % % % % % % % % % % % % % % % % % ",
"% % % % % % % % % % % % % % % % % %     B L L L L %   X % % >     ~ _  ._ _ @   & % % % % % % % % % % % % % % % % % % % % % % % % ",
"% % % % % % % % % % % % % % % % % %     B L E L L *   O % % %     ~ _ _ _ _ @   & % % % % % % % % % % % % % % % % % % % % % % % % ",
"% % % % % % % % % % % % % % % % % %     l C C n C &   X % % %     ) O.O.O.O.@   & % % % % % % % % % % % % % % % % % % % % % % % % ",
"% % % % % % % % % % % % % % % % % %     e n n I n +   X % % %     O.O.#.#.#.@   & % % % % % % % % % % % % % % % % % % % % % % % % ",
"% % % % % % % % % % % % % % % % % %     l n n l n &   X % % = X . ) X.X.X.X.* X - % % % % % % % % % % % % % % % % % % % % % % % % ",
"% % % % % % % % % % % % % % % % % %     U W W W W *   O % % % % % .         % % % % % % % % % % % % % % % % % % % % % % % % % % % ",
"% % % % % % % % % % % % % % % % % %     U W W W W *   O % % % % % .         % % % % % % % % % % % % % % % % % % % % % % % % % % % ",
"% % % % % % % % % % % % % % % % % % & & b I I I I 3 - - % % % % % - * - - - % % % % % % % % % % % % % % % % % % % % % % % % % % % ",
"% % % % % % % % % % % % % % % % % % % % % % % % = % % = % % % % % % % % % % % % % % % % % % % % % % % % % % % % % % % % % % % % % "
};
