/* XPM */
static char *result[] = {
/* columns rows colors chars-per-pixel */
"64 68 199 2 ",
"   c #010101",
".  c #03090C",
"X  c #1D0B04",
"o  c #1A1F0E",
"O  c #0F1514",
"+  c #011F1F",
"@  c #141617",
"#  c #161A1C",
"$  c #1A1C1D",
"%  c #00211F",
"&  c #3F2D1F",
"*  c #001F21",
"=  c #002020",
"-  c #1D2223",
";  c #1A2428",
":  c #0B3132",
">  c #103030",
",  c #212527",
"<  c #222629",
"1  c #272B2D",
"2  c #2A2E2F",
"3  c #2A2E31",
"4  c #243334",
"5  c #2C3133",
"6  c #323639",
"7  c #353839",
"8  c #35393C",
"9  c #551C00",
"0  c #721E00",
"q  c #6E2500",
"w  c #6E2901",
"e  c #722601",
"r  c #722901",
"t  c #772805",
"y  c #792903",
"u  c #7B2D0A",
"i  c #7B350B",
"p  c #473E36",
"a  c #493F35",
"s  c #703E29",
"d  c #4A4239",
"f  c #7C482D",
"g  c #3B3F42",
"h  c #085855",
"j  c #344243",
"k  c #3D4144",
"l  c #33494D",
"z  c #3D4B4B",
"x  c #187170",
"c  c #396567",
"v  c #346A6B",
"b  c #236F73",
"n  c #4F4C42",
"m  c #45494C",
"M  c #495253",
"N  c #435B5E",
"B  c #7F5C45",
"V  c #455B60",
"C  c #516E79",
"Z  c #44797D",
"A  c #57777C",
"S  c #727372",
"D  c #842E06",
"F  c #83350E",
"G  c #8A3308",
"H  c #963A0F",
"J  c #853B17",
"K  c #8A3D16",
"L  c #8B3C19",
"P  c #933D14",
"I  c #933F19",
"U  c #8E471A",
"Y  c #954017",
"T  c #94421B",
"R  c #9D4718",
"E  c #A54C1E",
"W  c #A94B1E",
"Q  c #91552E",
"!  c #A54D21",
"~  c #A94E21",
"^  c #BA5A23",
"/  c #B55828",
"(  c #B25F3B",
")  c #AE613C",
"_  c #BD6234",
"`  c #B2613D",
"'  c #BD663E",
"]  c #C4673E",
"[  c #C5693E",
"{  c #CA6A3E",
"}  c #D46C3F",
"|  c #D7753E",
" . c #DA743E",
".. c #825E46",
"X. c #976B57",
"o. c #AB684D",
"O. c #B76642",
"+. c #BC6643",
"@. c #B66A47",
"#. c #BC6944",
"$. c #BC6649",
"%. c #B5694B",
"&. c #BB6949",
"*. c #A76852",
"=. c #B26E56",
"-. c #B67253",
";. c #C46741",
":. c #C56940",
">. c #CC6C45",
",. c #CD6C49",
"<. c #D36D42",
"1. c #DA6F41",
"2. c #D16F4C",
"3. c #D37344",
"4. c #DB7342",
"5. c #DE7946",
"6. c #DE7949",
"7. c #CB7856",
"8. c #E17747",
"9. c #E07946",
"0. c #EA7A46",
"q. c #E1774B",
"w. c #E17D4B",
"e. c #EB7C49",
"r. c #B6935D",
"t. c #BE945C",
"y. c #AA826F",
"u. c #B49463",
"i. c #B98773",
"p. c #DE864A",
"a. c #EF8B4E",
"s. c #F78444",
"d. c #FC8446",
"f. c #F6854B",
"g. c #FB8449",
"h. c #F78A48",
"j. c #FA8B4D",
"k. c #E38350",
"l. c #FC8A55",
"z. c #F69853",
"x. c #D9A15F",
"c. c #FCA85B",
"v. c #E6B36D",
"b. c #F7B06B",
"n. c #F6C17E",
"m. c #FCC77C",
"M. c #FCC97D",
"N. c #597B80",
"B. c #2F8E8F",
"V. c #338C8C",
"C. c #3AB8B7",
"Z. c #509296",
"A. c #6B8792",
"S. c #64959C",
"D. c #6D959D",
"F. c #63999E",
"G. c #6E989B",
"H. c #75969B",
"J. c #72959D",
"K. c #6C96A1",
"L. c #669AA4",
"P. c #6C9AA2",
"I. c #789BA3",
"U. c #56A5AB",
"Y. c #59A4AA",
"T. c #53ADB2",
"R. c #63A8B2",
"E. c #4CC4C5",
"W. c #5BC2C6",
"Q. c #59D8DC",
"!. c #62C8CC",
"~. c #64D3CF",
"^. c #69D5D9",
"/. c #5EE7E7",
"(. c #4DF7F7",
"). c #4EFAF6",
"_. c #4CFDFC",
"`. c #52F6F7",
"'. c #59F6F6",
"]. c #53FAF5",
"[. c #57F7F9",
"{. c #52FCFC",
"}. c #64E5E6",
"|. c #6AE5E4",
" X c #64E5E8",
".X c #68E7E8",
"XX c #64EAEA",
"oX c #6AE9EA",
"OX c #62F2F1",
"+X c #929594",
"@X c #9B999C",
"#X c #B39B8D",
"$X c #B29B91",
"%X c #9FA19F",
"&X c #ABA59E",
"*X c #ADA4A5",
"=X c #C19788",
"-X c #F3CA81",
";X c #FBCA80",
/* pixels */
"o o o o o o o o o o o o o o o o o o o o o o o o o o o o             X e e w w w o o o o o o o o o o o o o o o o o o o o o o o o ",
"o o o o o o o o o o o o o o o o o o o o o o o o o . .   (.`.`.`.].~.K d.c.Q 3.>.r o o o o o o o o o o o o o o o o o o o o o o o ",
"o o o o o o o o o o o o o o o o o o o o o o o     (.).)._.K.K.S.H.F g.c.x.L 4.[ r r o o o o o o o o o o o o o o o o o o o o o o ",
"o o o o o o o o o o o o o o o o o o o o o   . ]._.D.D.G.K.{.J.J.y d.j.b.4.K | 4.t f.r o o o o o o o o o o o o o o o o o o o o o ",
"o o o o o o o o o o o o o o o o o o o     [._.{.S.D.D.D.S.].H.e d.h.j.c.4.K  .4.y h.' t o o o o o o o o o o o o o o o o o o o o ",
"o o o o o o o o o o o o o o o o o o   OX_.F.D.D.{.S.S.D.      e g.j.v.! 9.L 4.1.r g.+.e   o o o o o o o o o o o o o o o o o o o ",
"o o o o o o o o o o o o o o o o o - OX{.L.G.G.D.D.).    2 2 2 e g.j.v.E w.L  .1.y g.+.e '.. o o o o o o o o o o o o o o o o o o ",
"o o o o o o o o o o o o o o o o 5 Q.F.G.].K.A.D.    2 5 5 3 e d.g.j.v.E 0.P  .1.r f.+.r r '.. o o o o o o o o o o o o o o o o o ",
"o o o o o o o o o o o o o o o   E.Y.J.J.G.'..   1 3 3 3 3 3 y e.g.a.v.E 0.H | 1.r f.' r r D.`.  o o o o o o o o o o o o o o o o ",
"o o o o o o o o o o o o o o   B.T.S.G.D.K.  2 3 3 3 3 3 1 & 0 d.h.m.` E 0.P | 3.y g.<.r y H.K._.  o o o o o o o o o o o o o o o ",
"o o o o o o o o o o o o o     V.'.U.G.J.  3 3 3 3 3 3 3 2 r d.d.j.b.) E 0.H 4.{ r f.<.e h.r [.[.. o o o o o o o o o o o o o o o ",
"o o o o o o o o o o o o o   x W.S.|.S.  2 3 3 3 3 3 3 3 2 r d.d.f.-X( E 0.K 4.[ y g.} e d.r H.J._.. o o o o o o o o o o o o o o ",
"o o o o o o o o o o o o     b !.D.D.  5 3 3 3 3 3 3 3 3 < e e.d.g.-X( ! 0.P 4.[ r g.>.e d.r I.D.XX% o o o o o o o o o o o o o o ",
"o o o o o o o o o o o o   h !.J.S.A.. 5 3 3 3 3 3 3 3 3 a G d.d.z.v.( E 0.P 4.{ r g.} e s.F S D.S.{.  o o o o o o o o o o o o o ",
"o o o o o o o o o o o o   B.~.W.L.O 5 2 3 3 3 3 3 3 3 3 e d.d.g.;X$.;.E 0.P  .1.t g.<.e s.+.e W.W.^.v o o o o o o o o o o o o o ",
"o o o o o o o o o o o o   ^.R.!.c - 2 2 3 3 3 3 3 3 3 3 e g.d.s.;X;.] W 6.J  .<.r g.<.e s.>.r !.!.S.).  o o o o o o o o o o o o ",
"o o o o o o o o o o o o   ^.K.K.- 1 2 3 3 3 3 3 3 3 3 3 r g.d.d.M.#.] E 6.L  .1.e g.<.e s.<.e ; D.D.(.  o o o o o o o o o o o o ",
"o o o o o o o o o o o o   ^.G.P.- 1 3 3 3 3 3 3 3 3 3 2 r d.d.s.M.;.` E 6.L 4.{ r f.} e s.<.r   D.D.).  o o o o o o o o o o o o ",
"o o o o o o o o o o o > !.P.P.z < 1 3 3 3 3 3 3 3 3 3 3 r g.g.D i i u ! 4.L  .] t g.] r g.] r   D.D.R.Q.# o o o o o o o o o o o ",
"o o o o o o o o o o o + ).].`.v < 3 3 3 3 3 3 3 3 3 3 2 r s.y f.s.s.4.e y r 4.[ r f.+.r s.O.r   `.'.`._.  o o o o o o o o o o o ",
"o o o o o o o o o o o + }.F.S.j < 3 3 3 3 3 3 3 3 3 3 2 r j.e g.&.#.[ s.g.E e e r f.' e s.+.r   D.S.K.{.  o o o o o o o o o o o ",
"o o o o o o o o o o o + }.D.G.l 1 3 3 3 3 3 3 3 3 3 3 3 r g.e h.#.=.$X+.-.k.g.d.y r r r d.$.y   K.D.D.{.  o o o o o o o o o o o ",
"o o o o o o o o o o o * }.D.S.j < 3 3 3 3 3 3 3 3 3 3 2 r d.j.r e i #.#.i.X.#.+.f.s.s.r e e r   K.D.D.{.  o o o o o o o o o o o ",
"o o o o o o o o o o o * |.D.S.j < 3 3 3 3 3 3 3 3 3 3 3 e d.d.s.r r r r ! #.O.#X=.&.$.g.d.d.r r D.D.D.{.  o o o o o o o o o o o ",
"o o o o o o o o o o o * _._._.v < 3 3 3 3 3 3 3 3 3 3 2 r g.d.d.;X) r r r r r ` #.O.*X%.#.#.g.e _._._.{.  o o o o o o o o o o o ",
"o o o o o o o o o o o * |.D.D.g < 3 3 3 3 3 3 3 3 3 3 2 r g.d.d.;X:.[ ~ ^ r r r r r #.#.@.*X%.t D.D.D.{.  o o o o o o o o o o o ",
"o o o o o o o o o o o * }.D.D.j < 3 6 6 3 3 3 3 3 3 3 3 r d.d.p.t.#.:.W 4.K 4.D e r e e e +.$.t D.G.D.`.  o o o o o o o o o o o ",
"o o o o o o o o o o o = }.J.D.j < 3 - 6 3 3 3 3 3 3 3 2 r g.g.k.t.,.( W 5.U  .[ t g.e r w e w   D.G.D.{.  o o o o o o o o o o o ",
"o o o o o o o o o o o * W.P.Z 4 k 8 - 5 8 3 6 3 3 3 2 g 9 4.g.k.u.2.Q J 6.J  .{ t f.+.q g.e r   L.K.P.{.  o o o o o o o o o o o ",
"o o o o o o o o o o o : OXC.Q.N.1 g - 7 g - - < 3 3 k - U _ _ k.u.7.Q ! 6.L  .[ r f.;.q g.#.q   `.{.{.{.  o o o o o o o o o o o ",
"o o o o o o o o o o o * oXC A.z < 3 - 6 3 - m 3 1 5 2 2 w d.g.k.t.B p ! 6.L  . .y g.+.e g.#.e   D.D.D.{.  o o o o o o o o o o o ",
"o o o o o o o o o o o *  XI.N.3 # 3 - 6 3 8 m 5 m - 1 2 w j.d.k.u.5 +X..8.P  .1.t g.+.e d.;.q   D.J.K.{.  o o o o o o o o o o o ",
"o o o o o o o o o o o * oXI.J.M $ 5 - 8 5 2 5 8 m - 5 , r k.6.k.u.M S X.2.J 4.4.t g.+.q g.<.w   D.G.D.{.  o o o o o o o o o o o ",
"o o o o o o o o o o o * oXv Z 4 k 5 M - k 5 5 - $ m 5 - 9 _ l.k.r.n %Xs 6.U  .} t f.] e g.<.q   Y.Y.Y.{.  o o o o o o o o o o o ",
"o o o o o o o o o o o + [.OXoXc < 3 3 3 3 3 3 3 5 3 3 3 q d.d.d.;X*.p ! e.I  . .t g.<.e g.<.e    X XoX{.  o o o o o o o o o o o ",
"o o o o o o o o o o o * oXI.J.j < 3 3 3 3 3 3 3 3 3 2 5 r g.g.g.b.=.p ! 0.P  .<.D e.1.e g.<.w   D.D.D.{.  o o o o o o o o o o o ",
"o o o o o o o o o o o = oXK.H.j < 3 3 3 3 3 3 3 3 3 3 3 r g.d.d.m.-.d E e.Y  .[ u f.<.e g.[ e   K.D.K.{.  o o o o o o o o o o o ",
"o o o o o o o o o o o = XXD.D.j < 3 3 3 3 3 3 3 3 3 3 2 r g.d.d.M.-.d ! e.P  .[ w f.:.e d.#.r   D.J.D.{.  o o o o o o o o o o o ",
"o o o o o o o o o o o = [.XX Xc , 3 3 3 3 3 3 3 3 3 3 2 r g.d.s.M.%.p E e.P  .3.y f.+.e g.,.e    X/. X{.  o o o o o o o o o o o ",
"o o o o o o o o o o o = /.U.U.j < 3 3 3 3 3 3 3 3 3 3 3 e g.g.s.m.o.a W e.P | 1.y g.+.e g.<.y   U.Y.U.).  o o o o o o o o o o o ",
"o o o o o o o o o o o =  XJ.D.j < 3 3 3 3 3 3 3 3 3 3 2 r g.d.d.n.n @X..e.P  .4.y f.+.e d.<.r   G.D.D.{.  o o o o o o o o o o o ",
"o o o o o o o o o o o %  XK.J.j , 3 3 3 3 3 3 3 3 3 3 3 r g.g.s.-Xm @X..8.K  .4.y g.<.e g.<.r   S.D.D.{.  o o o o o o o o o o o ",
"o o o o o o o o o o o = XXJ.J.j < 3 3 3 3 3 3 3 3 3 3 2 r g.d.s.M.M @XB 9.K  .1.y f.{ e g.<.r   K.J.S.{.  o o o o o o o o o o o ",
"o o o o o o o o o o o = _.`.`.v , 5 3 3 3 3 3 3 3 3 3 2 w g.d.d.M.X.d R 9.K  .:.e f.} e d.+.r   ].{.`.{.  o o o o o o o o o o o ",
"o o o o o o o o o o o = XXK.S.j , 3 3 3 3 3 3 3 3 3 3 3 r g.g.s.M.@.' W 5.L 4.{ t f.;.q g.+.r   S.K.L.{.  o o o o o o o o o o o ",
"o o o o o o o o o o o =  XG.J.j , 3 3 3 3 3 3 3 3 3 3 2 r g.d.d.M.] :.E e.Y  .[ t f.+.e d.+.r   G.D.G.{.  o o o o o o o o o o o ",
"o o o o o o o o o o o % |.D.D.j < 3 3 3 3 3 3 3 3 3 3 3 r g.d.s.M.3.:.! f.Y  .[ t f.;.e d.r r r K.K.G.`.  o o o o o o o o o o o ",
"o o o o o o o o o o o % .XD.D.j , 3 3 3 3 3 3 3 3 3 3 3 r g.g.s.M.,.` W e.L  .] t j.y r e d.d.e w D.G.{.  o o o o o o o o o o o ",
"o o o o o o o o o o o = {.{._.v < 3 3 3 3 3 3 3 3 3 3 2 r g.d.s.M.2.O.! 5.K  .G e y l.d.d.#.#.#.t _._.{.  o o o o o o o o o o o ",
"o o o o o o o o o o o = }.P.P.j < 3 3 3 3 3 3 3 3 3 3 3 r g.d.s.m.2.) E ^ r r e.d.d.+.#.#.%X@.$.t S.D.{.  o o o o o o o o o o o ",
"o o o o o o o o o o o = }.I.K.j < 3 3 3 3 3 3 3 3 3 3 2 r g.d.s.m.` r r / d.g.[ ' #.&X#.#.#.r r G.D.D.{.  o o o o o o o o o o o ",
"o o o o o o o o o o o = }.K.K.j < 3 3 3 3 3 3 3 3 3 3 3 r g.g.e e i d.d.q.+.&.#X=.#.#.r w r e   D.D.D.{.  o o o o o o o o o o o ",
"o o o o o o o o o o o = Q.S.S.j < 3 3 3 3 3 3 3 3 3 3 3 e g.q g.d.f.$.O.i.y.#.&.w w r r q r r   D.S.D.{.  o o o o o o o o o o o ",
"o o o o o o o o o o o = {.`.`.v , 2 3 3 3 3 3 3 3 3 3 2 r s.q g.#.=.$X&.&.Y w r r e r q d.+.r   `.].{.{.  o o o o o o o o o o o ",
"o o o o o o o o o o o = |.K.K.k < 3 3 3 3 3 3 3 3 3 3 3 r g.e s.O.+.) r r r r y r f.:.q g.<.r   J.D.J.{.  o o o o o o o o o o o ",
"o o o o o o o o o o o =  XJ.K.j , 3 3 3 3 3 3 3 3 3 3 2 w d.d.P r r r u F u  . .y f.<.e s.<.r   D.D.D.{.  o o o o o o o o o o o ",
"o o o o o o o o o o o = |.A.G.j , 3 3 3 3 3 5 3 3 3 2 2 r d.d.d.U F i ! 0.Y | 3.t h.<.e d.+.r   K.P.D.(.  o o o o o o o o o o o ",
"o o o o o o o o o o o A Z.c N , @ # $ $ $ $ $ $ $ $ $ # r d.d.s.M.3.' ! e.T  .<.t f.} e g.+.r   N V z V.S o o o o o o o o o o o ",
"o o o o o o o o o o o o o o o o o o o o o o o o o o o o r d.d.s.M.>.[ ~ e.Y 4.{ t f.,.e g.T =Xo o o o o o o o o o o o o o o o o ",
"o o o o o o o o o o o o o o o o o o o o o o o o o o o o r h.d.e.;X#.[ ~ e.I 4.:.t g.$.w H o o o o o o o o o o o o o o o o o o o ",
"o o o o o o o o o o o o o o o o o o o o o o o o o o o o r d.d.s.M.+.[ W e.P  .>.r h.D o o o o o o o o o o o o o o o o o o o o o ",
"o o o o o o o o o o o o o o o o o o o o o o o o o o o o r d.d.s.;X' >.~ 8.K  .] y u o o o o o o o o o o o o o o o o o o o o o o ",
"o o o o o o o o o o o o o o o o o o o o o o o o o o o o r d.d.s.m.#.` W 8.L  .D o o o o o o o o o o o o o o o o o o o o o o o o ",
"o o o o o o o o o o o o o o o o o o o o o o o o o o o o r d.d.s.m.#.` W 8.K e o o o o o o o o o o o o o o o o o o o o o o o o o ",
"o o o o o o o o o o o o o o o o o o o o o o o o o o o o r d.d.d.;X+.` ! ^ o o o o o o o o o o o o o o o o o o o o o o o o o o o ",
"o o o o o o o o o o o o o o o o o o o o o o o o o o o o r d.d.s.;XO.` y o o o o o o o o o o o o o o o o o o o o o o o o o o o o ",
"o o o o o o o o o o o o o o o o o o o o o o o o o o o o r g.d.s.M.+.f o o o o o o o o o o o o o o o o o o o o o o o o o o o o o ",
"o o o o o o o o o o o o o o o o o o o o o o o o o o o o o r q e y s o o o o o o o o o o o o o o o o o o o o o o o o o o o o o o "
};
