/* XPM */
static char *result[] = {
/* columns rows colors chars-per-pixel */
"66 64 215 2 ",
"   c #010303",
".  c #0D0302",
"X  c #0C0A07",
"o  c #020508",
"O  c #030B0B",
"+  c #090C0D",
"@  c #130301",
"#  c #05110C",
"$  c #1A1F0E",
"%  c #040F12",
"&  c #080D12",
"*  c #091716",
"=  c #0B1619",
"-  c #0A1B1D",
";  c #141515",
":  c #101819",
">  c #250B00",
",  c #2A1406",
"<  c #3A1100",
"1  c #391B09",
"2  c #081921",
"3  c #151B22",
"4  c #0C2322",
"5  c #0E2F31",
"6  c #103436",
"7  c #272626",
"8  c #2C3937",
"9  c #363835",
"0  c #451B05",
"q  c #471A04",
"w  c #561D01",
"e  c #5D1E04",
"r  c #4D2208",
"t  c #4F2D0C",
"y  c #5D2506",
"u  c #5C270A",
"i  c #5C2A0B",
"p  c #6C2604",
"a  c #662805",
"s  c #6E2901",
"d  c #652C0C",
"f  c #6C2B0A",
"g  c #732701",
"h  c #7A2705",
"j  c #732901",
"k  c #7A2904",
"l  c #732C08",
"z  c #7C2F0B",
"x  c #713105",
"c  c #7A310B",
"v  c #612D12",
"b  c #663919",
"n  c #713012",
"m  c #733C22",
"M  c #3C423E",
"N  c #57443C",
"B  c #7C4327",
"V  c #774F3E",
"C  c #383F44",
"Z  c #2E4F4F",
"A  c #3C4443",
"S  c #3D4549",
"D  c #296057",
"F  c #1A6264",
"G  c #484B4A",
"H  c gray35",
"J  c #795645",
"K  c #475C61",
"L  c #536E76",
"P  c #4A7379",
"I  c #747575",
"U  c #88340B",
"Y  c #833B16",
"T  c #963A10",
"R  c #8B421C",
"E  c #97461D",
"W  c #864827",
"Q  c #9B4B26",
"!  c #9C4E29",
"~  c #9F502F",
"^  c #874E30",
"/  c #8B4C32",
"(  c #944E31",
")  c #8E5034",
"_  c #955234",
"`  c #9C5434",
"'  c #A5542E",
"]  c #AC562D",
"[  c #B0562D",
"{  c #BB5D2E",
"}  c #A45532",
"|  c #AE5931",
" . c #A85B37",
".. c #B35B33",
"X. c #BA5D36",
"o. c #BB622F",
"O. c #BC6233",
"+. c #B4623D",
"@. c #BA6639",
"#. c #BD673F",
"$. c #CE6C35",
"%. c #C3663C",
"&. c #C9673C",
"*. c #C5683B",
"=. c #CA6A3D",
"-. c #D56F3D",
";. c #D7713F",
":. c #805642",
">. c #B56442",
",. c #BB6745",
"<. c #B66844",
"1. c #BA6845",
"2. c #BB6748",
"3. c #B16B48",
"4. c #B56C4D",
"5. c #BB6A49",
"6. c #AE6C51",
"7. c #B86D51",
"8. c #B57153",
"9. c #BB7053",
"0. c #C36742",
"q. c #C46A43",
"w. c #CB6D43",
"e. c #C36C49",
"r. c #CB6E49",
"t. c #D36F45",
"y. c #D36F48",
"u. c #CD7047",
"i. c #CC714A",
"p. c #D27045",
"a. c #DD7446",
"s. c #D2724A",
"d. c #C27353",
"f. c #CA7859",
"g. c #D27F5A",
"h. c #E47846",
"j. c #CA7F62",
"k. c #BC886D",
"l. c #B38D78",
"z. c #EC8549",
"x. c #F68447",
"c. c #FD8446",
"v. c #F4854C",
"b. c #FB8549",
"n. c #F9884A",
"m. c #EB8959",
"M. c #F48451",
"N. c #F48A51",
"B. c #F59056",
"V. c #C78063",
"C. c #388288",
"Z. c #3A9596",
"A. c #3CB4B4",
"S. c #4E8588",
"D. c #4B9796",
"F. c #59989D",
"G. c #6A868B",
"H. c #7B8784",
"J. c #6D8F9B",
"K. c #699595",
"L. c #64969D",
"P. c #6D959D",
"I. c #64999E",
"U. c #6D989C",
"Y. c #739397",
"T. c #72959C",
"R. c #76989C",
"E. c #509FA4",
"W. c #5D9CA4",
"Q. c #6897A3",
"!. c #6D95A1",
"~. c #639AA2",
"^. c #7193A1",
"/. c #7798A0",
"(. c #49ACAD",
"). c #56A3A5",
"_. c #56A4AB",
"`. c #5DA4A9",
"'. c #56AEB4",
"]. c #59AAB2",
"[. c #47B8BA",
"{. c #57B6BA",
"}. c #5BB5B9",
"|. c #66A6A9",
" X c #5EBEC4",
".X c #58C4CA",
"XX c #52CCCD",
"oX c #5DD1D3",
"OX c #5CD8DB",
"+X c #64C4C4",
"@X c #63CED2",
"#X c #64D7DB",
"$X c #5CDCE3",
"%X c #5CE7E8",
"&X c #4EFAF7",
"*X c #4CFCFD",
"=X c #5BF5F4",
"-X c #55FBF6",
";X c #5BF8F5",
":X c #5BF6F8",
">X c #53FBFC",
",X c #58F8F9",
"<X c #65E7E6",
"1X c #63E4E9",
"2X c #63ECED",
"3X c #73E3E7",
"4X c #64F0ED",
"5X c #64EEF2",
"6X c #63F3F3",
"7X c #64F9F9",
"8X c #9C9F9F",
"9X c #B08E80",
"0X c #ADA39A",
"qX c #B4A09A",
"wX c #A7A7A7",
/* pixels */
"$ $ $ $ $ $ $ $ $ $ $ $ $ $ $ $ $ $ $ $ $ $ $ $ $ $ $ $   o   o o o   o $ $ $ $ $ $ $ $ $ $ $ $ $ $ $ $ $ $ $ $ $ $ $ $ $ $ $ $ $ $ ",
"$ $ $ $ $ $ $ $ $ $ $ $ $ $ $ $ $ $ $ $ $ $ $ $ $ X o 6 &X*X&X&X&X&X&X&Xo o X $ $ $ $ $ $ $ $ $ $ $ $ $ $ $ $ $ $ $ $ $ $ $ $ $ $ $ ",
"$ $ $ $ $ $ $ $ $ $ $ $ $ $ $ $ $ $ $ $ $ $ +   Z.&X&X*X%XQ.U.I.I.Q.I.*X*X,X-Xo   $ $ $ $ $ $ $ $ $ $ $ $ $ $ $ $ $ $ $ $ $ $ $ $ $ ",
"$ $ $ $ $ $ $ $ $ $ $ $ $ $ $ $ $ $ $ $ X   3X;X X~.~.F.).6XP.P.P.P.-XW.~.~.W.:X,Xo   $ $ $ $ $ $ $ $ $ $ $ $ $ $ $ $ $ $ $ $ $ $ $ ",
"$ $ $ $ $ $ $ $ $ $ $ $ $ $ $ $ $ $ . . <X=X*X{.Q.P.P.P.E.7X!.^.^.!.>XQ.P.P.P.~.>X,X=X*   $ $ $ $ $ $ $ $ $ $ $ $ $ $ $ $ $ $ $ $ $ ",
"$ $ $ $ $ $ $ $ $ $ $ $ $ $ $ $ $ X 5X2X).W.).#X}.P.P.P.J.% o o o o O K.P.J.P.6XW.W.W.1X2XD $ $ $ $ $ $ $ $ $ $ $ $ $ $ $ $ $ $ $ $ ",
"$ $ $ $ $ $ $ $ $ $ $ $ $ $ $ $   2X*X).!.P.^.I.#XD.O   . d d d d d d o o   2X).!.!.!.W.%X,XD.H $ $ $ $ $ $ $ $ $ $ $ $ $ $ $ $ $ $ ",
"$ $ $ $ $ $ $ $ $ $ $ $ $ $ $ ; <X]._.2X~.T.^.6 = , v v v g g j g g j v v v - O P.P.P.3X{._.{.D.9 $ $ $ $ $ $ $ $ $ $ $ $ $ $ $ $ $ ",
"$ $ $ $ $ $ $ $ $ $ $ $ $ $ 7 oX).!.U.`.1X4 = r u a j j h h.<.+.>.>.>.g j j u u ; = #X'.~.U.~.}.'.9 $ $ $ $ $ $ $ $ $ $ $ $ $ $ $ $ ",
"$ $ $ $ $ $ $ $ $ $ $ $ $ $ A.}.P.U.U.U.Z t r a g Y ..| k x.2.,.2.2.,.g -.{ g j r r Z Y.!.U.U.|.{.F.G $ $ $ $ $ $ $ $ $ $ $ $ $ $ $ ",
"$ $ $ $ $ $ $ $ $ $ $ $ $   *XXXP.!.U.S 1 d j E Q  .q.q.k c.2.1.,.,.,.s h.h.] Q j g < G G.P.T.|.oX%X  $ $ $ $ $ $ $ $ $ $ $ $ $ $ $ ",
"$ $ $ $ $ $ $ $ $ $ $ $ $ F @X@X.XP.K , a Q E +.1.5.q.q.k b.,.,.,.,.,.g c.&.t.2.E E s < G G.|..X@X+XF $ $ $ $ $ $ $ $ $ $ $ $ $ $ $ ",
"$ $ $ $ $ $ $ $ $ $ $ $   -XP.P.#XL > l j v.;.e.1.,.w.*.h v.2.2.,.,.,.s c.,.t.w.t.p.k j < G W.+XP.).5X  $ $ $ $ $ $ $ $ $ $ $ $ $ $ ",
"$ $ $ $ $ $ $ $ $ $ $ $ 5 %XP.P.P.  j z g b.;.0.,.w.t.#.k b.2.,.,.2.,.s x.,.w.t.t.p.j U k , 8 P.P.|.3X5 $ $ $ $ $ $ $ $ $ $ $ $ $ $ ",
"$ $ $ $ $ $ $ $ $ $ $   >XU.P.P.Y.@ l 5.g v.t.t.q.r.r.+.h b.0.0.t.,.,.j c.2.,.t.t.u.j v.T < 8 J.U.P.W.=X  $ $ $ $ $ $ $ $ $ $ $ $ $ ",
"$ $ $ $ $ $ $ $ $ $ $ # ,XI.F.U.  s g 5.g v.*.w.q.e.r.+.h b.1.t.t.,.,.j c.2.,.t.t.,.k v.T g q 8 I.~.F.4XO $ $ $ $ $ $ $ $ $ $ $ $ $ ",
"$ $ $ $ $ $ $ $ $ $ o *XU.>X-XP.  g <.1.j v.*.w.q.q.r.+.h b.1.y.t.,.,.s c.,.1.t.t.,.k v.w.R 0 9 |.>X6XW.=X  $ $ $ $ $ $ $ $ $ $ $ $ ",
"$ $ $ $ $ $ $ $ $ $ o >XP.P.P.  g p 1.,.j v.*.w.t.y.i.>.k b.1.y.t.,.,.j c.,.,.1.y.1.l N.=.R g q : !.!.~.=X  $ $ $ $ $ $ $ $ $ $ $ $ ",
"$ $ $ $ $ $ $ $ $ $ o >XP.P.P.  j 1.1.,.g v.*.2.w.w.1.+.k v.2.t.t.,.,.j c.#.1.,.t.0.j n.t.,.! q 3 Q.!.~.;X  $ $ $ $ $ $ $ $ $ $ $ $ ",
"$ $ $ $ $ $ $ $ $ $   >XP.P.P.  j ,.1.<.j v.*.2.w.w.5.>.k v.,.t.t.,.,.g c.1.,.,.p.p.k v.=.,.! q 3 P.U.I.=X  $ $ $ $ $ $ $ $ $ $ $ $ ",
"$ $ $ $ $ $ $ $ $ O -XI.L.J.  g j ,.,.,.g v.&.2.w.q.5.>.k x.2.y.2.t.1.j c.,.,.,.t.t.j v.w.2.! s y & U.!.~.>X  $ $ $ $ $ $ $ $ $ $ $ ",
"$ $ $ $ $ $ $ $ $ o *X*X*X>X  g c.<.,.1.g v.&.2.,.,.1.>.h c.t.;.5.y.,.g c.,.,.,.t.p.k v.w.,.,.' u 2 *X*X*X>X  $ $ $ $ $ $ $ $ $ $ $ ",
"$ $ $ $ $ $ $ $ $   >XP.P.P.  g b.1.2.1.g v.*.1.,.2.,.<.h c.p.1.1.t.,.j c.2.,.1.y.t.k v.w.,.2.' d + P.P.~.>X  $ $ $ $ $ $ $ $ $ $ $ ",
"$ $ $ $ $ $ $ $ $   >XP.P.P.  g b.1.2.1.j v.*.,.,.,.<.+.k c.t.1.2.t.,.g c.,.5.,.,.1.l v.-.,.2.' u X P.P.W.>X  $ $ $ $ $ $ $ $ $ $ $ ",
"$ $ $ $ $ $ $ $ $ o >XU.P.J.j s j j j j s j g j g g j g s s s k j g g g g g g s j j s g g j g j s b P.P.I.>X  $ $ $ $ $ $ $ $ $ $ $ ",
"$ $ $ $ $ $ $ $ $ o >XP.P.j c.c.b.c.c.b.c.c.c.c.c.c.c.c.c.c.h.c.c.c.c.c.c.c.c.h.c.c.c.c.c.x.v.c.c.z.d !.~.>X  $ $ $ $ $ $ $ $ $ $ $ ",
"$ $ $ $ $ $ $ $ $ o *X*X-Xj c.,.1.,.0X7.<.1.1.1.l.9X,.,.,.,.,.,.wX,.1.1.1.1.q.wX1.1.1.2.e.l.l.,.,.X.t *X>X>X  $ $ $ $ $ $ $ $ $ $ $ ",
"$ $ $ $ $ $ $ $ $ o >XQ.Y.j c.,.1.,.<.,.1.<.,.1.2.2.,.,.,.1.1.1.2.,.1.<.,.1.,.5.2.2.1.5.2.,.3.,.<.>.a J.W.>X  $ $ $ $ $ $ $ $ $ $ $ ",
"$ $ $ $ $ $ $ $ $ O >XP.P.Y.h g g g j g g j g g g j j j j j j j R W g g j j j j j j j j k c g l s b T.T.I.>X  $ $ $ $ $ $ $ $ $ $ $ ",
"$ $ $ $ $ $ $ $ $   >XU.P.T.. j j j j s j j g j j j j s j j j j m w s k j j j j j j j j d w g j 0 ; P.!.~.;X  $ $ $ $ $ $ $ $ $ $ $ ",
"$ $ $ $ $ $ $ $ $   >XU.U.P.  g z.#.1.1.s z.p.,.1.1.1...k m.f.1.9.^ f.x x.<.,.<.<.<.f z. .) q.` 0 : T.!.W.=X  $ $ $ $ $ $ $ $ $ $ $ ",
"$ $ $ $ $ $ $ $ $ O *X<X%X<X  g c.1.1.1.j v.a.y.q.1.1.9.y ..` _ 9./ ~ q o.5./ 6.1.9.w m.` / _ B 0 % (.3X(.[.  $ $ $ $ $ $ $ $ $ $ $ ",
"$ $ $ $ $ $ $ $ $   >X'.{.'.  g b.0.,.2.s x.=.i.w.1.2.) e c.y.f.4.^ t.x %.f.^ 6.,.9.w N.+.( r.| 0 2 ].D.C.>X; $ $ $ $ $ $ $ $ $ $ $ ",
"$ $ $ $ $ $ $ $ $ o >XP.P.P.  g b.2.V 4.g v.=.u.q.2.2.8.y +.>.y.8._ s.s o.j.^ 6.,.9.w v.+.` w.| q : P.L P XX+ $ $ $ $ $ $ $ $ $ $ $ ",
"$ $ $ $ $ $ $ $ $ O >X!.P.Y.  g b.:.I J p x.&.u.w.0.5.>.c m.( ] 8.` =.j O.V./ 7.,.d.w v.@.) q.| q - P.L P 1X7 $ $ $ $ $ $ $ $ $ $ $ ",
"$ $ $ $ $ $ $ $ $   >X!.P.P.  g v.G wXA d x.&.r.s.q.5.9.Y N.:.~ 9.` <.j O.V./ ` 4.f.w M.w.) f.[ q = /.G.P 7X7 $ $ $ $ $ $ $ $ $ $ $ ",
"$ $ $ $ $ $ $ $ $ o *X'.{.].  g c.N 8XN p v.&.,.r.w.1.W e o.^ g.d.` <.j O.j.7.} / / e z.a.( ( [ B # S.].C.A.  $ $ $ $ $ $ $ $ $ $ $ ",
"$ $ $ $ $ $ $ $ $ o *X6X6X%X  g b.2.M 7.k v.&.2.r.y.i.+.h v.,.<.y.y.,.j c.,.,.t.<.<.j N.a.w.*.[ u - 5X5X=X>X  $ $ $ $ $ $ $ $ $ $ $ ",
"$ $ $ $ $ $ $ $ $ o >XU.P.Y.  g b.1.A 4.k v.=.2.5.0.r.+.h b.<.,.y.y.,.j c.2.,.t.1.,.l v.h.t.y.[ y + P.P.I.>X  $ $ $ $ $ $ $ $ $ $ $ ",
"$ $ $ $ $ $ $ $ $ o >X!.P.Y.  g b.2.M 7.l v.*.,.1.0.r.+.h v.2.,.t.t.,.g c.,.,.y.,.5.k v.a.p.r.' u + T.P.~.>X  $ $ $ $ $ $ $ $ $ $ $ ",
"$ $ $ $ $ $ $ $ $ o >XU.U.P.  g b.1.M 7.g v.&.,.1.q.r.+.h b.2.,.t.t.,.j c.,.1.t.2.2.k v.w.w.r.' u + P.!.W.,X  $ $ $ $ $ $ $ $ $ $ $ ",
"$ $ $ $ $ $ $ $ $   >XI.L.F.  g b.1.A 4.g v.=.,.2.q.p.w.h v.2.,.t.t.,.s c.2.,.t.%.2.k v.w.q.r.' u % P.I.F.>X  $ $ $ $ $ $ $ $ $ $ $ ",
"$ $ $ $ $ $ $ $ $ o *X*X*X-X  g c.1.A 4.g v.*.2.1.2.q.q.h c.1.,.t.t.,.g c.1.y.p.p.1.l b.w.w.y...y * >X*X>X>X  $ $ $ $ $ $ $ $ $ $ $ ",
"$ $ $ $ $ $ $ $ $ O >XU.T.P.  g b.G wXC d v.=.2.5.1.0.q.h v.5.,.t.t.,.s b.2.y.t.t.1.l v.w.q.t.| u % P.P.I.>X  $ $ $ $ $ $ $ $ $ $ $ ",
"$ $ $ $ $ $ $ $ $   >X!.P.P.  g b.A wXC d v.&.,.,.,.0.*.k b.2.,.t.t.,.g c.,.y.t.s.,.k N.w.q.r.' u & P.U.~.>X  $ $ $ $ $ $ $ $ $ $ $ ",
"$ $ $ $ $ $ $ $ $ O >XU.T.Y.  g b.<.M 6.g v.=.,.2.,.e.q.h v.2.,.,.2.,.j b.1.t.,.t.1.k v.w.q.w.' u + P.P.I.>X  $ $ $ $ $ $ $ $ $ $ $ ",
"$ $ $ $ $ $ $ $ $   >XP.P.P.  g b.,.1.5.j v.*.2.2.1.0.q.k v.2.2.,.,.,.j c.t.t.,.y.1.k N.w.0.1.' i % T.P.Q.>X  $ $ $ $ $ $ $ $ $ $ $ ",
"$ $ $ $ $ $ $ $ $ o *X*X*X>X  g b.,.1.1.g v.&.2.1.5.q.%.k b.2.,.2.,.,.g c.p.0.5.t.1.j v.=.1.5.' u - >X*X*X,X  $ $ $ $ $ $ $ $ $ $ $ ",
"$ $ $ $ $ $ $ $ $   >X~.Q.K.  g c.1.1.1.g v.&.2.,.,.q.q.h c.5.,.,.,.2.j c.t.2.1.t.p.k v.w.2.<.' u & !.!.W.,X  $ $ $ $ $ $ $ $ $ $ $ ",
"$ $ $ $ $ $ $ $ $ O >XP.P.P.  g c.1.2.1.g z.&.,.2.w.w.+.h x.,.,.,.,.1.j c.;.p.2.0.p.k v.t.2.5.} u & P.P.~.>X  $ $ $ $ $ $ $ $ $ $ $ ",
"$ $ $ $ $ $ $ $ $ O -X!.U.K.g j j g g g g l g l g g g s j j g g j j j j g g j s j j j g g j j j f b P.P.I.>X  $ $ $ $ $ $ $ $ $ $ $ ",
"$ $ $ $ $ $ $ $ $   >XP.P.p b.v.n.v.b.b.v.c.b.b.b.c.v.c.b.b.c.c.b.b.b.b.b.b.b.c.b.b.b.c.b.b.n.b.v.z.i P.~.,X  $ $ $ $ $ $ $ $ $ $ $ ",
"$ $ $ $ $ $ $ $ $ O *X=X=Xj b.%.#.,.qX1.#.#.q.#.l.k.2.,.0.,.2.,.0X1.2.q.1.1.%.0X,.,.#.#.#.l.l.@.,.+.i >X-X>X  $ $ $ $ $ $ $ $ $ $ $ ",
"$ $ $ $ $ $ $ $ $   >X|.Q.j x.<.,.,.4.,.1.,.,.,.5.5.<.,.,.,.,.<.<.5.,.,.,.,.1.4.1.,.,.,.1.<.5.1.,.#.i I.W.>X  $ $ $ $ $ $ $ $ $ $ $ ",
"$ $ $ $ $ $ $ $ $   >XU.T.H.U c c c c c c c c c c c c c c c c c c c c c c c c c c c c c c c c c c b G.U.Q.>X  $ $ $ $ $ $ $ $ $ $ $ ",
"$ $ $ $ $ $ $ $ $ o >XU.P.T.@ j j j j j j j j j s j g j j j j j j j j j s j j j j j j s j j s j a X T.T.~.>X  $ $ $ $ $ $ $ $ $ $ $ ",
"$ $ $ $ $ $ $ $ $ o >XU.U.P.  g $.O.X.' j $.'  .| ..~ ! l =.' } ..} } s $.' ..} ..} k =...} } E y & P.P.Q.>X  $ $ $ $ $ $ $ $ $ $ $ ",
"$ $ $ $ $ $ $ $ $ O *XoX#X@X  j c.q.y.,.l v.&.2.r.q.1.+.h b.1.r.p.w.,.g c.1.p.1.y.2.k v.=.1.1.' u * @X@XoX>X  $ $ $ $ $ $ $ $ $ $ $ ",
"$ $ $ $ $ $ $ $ $ O &XOXOX#X  g c.1.y.2.g v.&.,.w.e.1.+.h c.1.t.w.t.,.g c.0.i.q.y.1.l M.=.1.1.' u * OXOX$X>X  $ $ $ $ $ $ $ $ $ $ $ ",
"$ $ $ $ $ $ $ $ $   >XU.P.P.  g b.1.t.0.g v.&.0.w.q.,.+.k n.1.t.2.t.1.j x.1.,.t.p.1.k v.p.5.1.' u # P.P.L.>X  $ $ $ $ $ $ $ $ $ $ $ ",
"$ $ $ $ $ $ $ $ $ o ,XP.P.P.  g b.e.r.p.g v.=.i.q.1.5.+.h v.w.t.2.t.q.j c.,.,.r.1.1.k v.w.1.<.' u # P.P.I.,X  $ $ $ $ $ $ $ $ $ $ $ ",
"$ $ $ $ $ $ $ $ $ o >XT.P.P.  g b.5.2.p.g v.=.w.q.5.<.+.h b.y.t.1.p.w.g c.,.,.2.1.1.l v.w.,.5.' u + U.P.I.,X  $ $ $ $ $ $ $ $ $ $ $ ",
"$ $ $ $ $ $ $ $ $ O 6X/.R.R.  f b.5.5.5.d z.a.e.5.5.5.+.l N.s.5.5.e.y.f N.5.5.5.5.5.n B.u.1.5. .i + /.R.U.4X  $ $ $ $ $ $ $ $ $ $ $ ",
"$ $ $ $ $ $ $ $ $ $     .       f p f s . d a p p p p r @ p p p p p g   p p p s p p . v p p p q o   o       $ $ $ $ $ $ $ $ $ $ $ $ "
};
