/* XPM */
static char *result[] = {
/* columns rows colors chars-per-pixel */
"64 64 143 2 ",
"   c #0C0A07",
".  c #0E0C09",
"X  c #110E0B",
"o  c #13110E",
"O  c #19120F",
"+  c #1A1F0E",
"@  c #151412",
"#  c #1A1613",
"$  c #171817",
"%  c #1A1916",
"&  c #1C1C1A",
"*  c #201714",
"=  c #251A16",
"-  c #241D19",
";  c #291B18",
":  c #1F2017",
">  c #1F2118",
",  c #21201D",
"<  c #2E221E",
"1  c #32231F",
"2  c #232422",
"3  c #2A2624",
"4  c #2A2825",
"5  c #252B2D",
"6  c #352623",
"7  c #342926",
"8  c #3A2A26",
"9  c #342C29",
"0  c #3A2B28",
"q  c #32312F",
"w  c #3E312B",
"e  c #3C3231",
"r  c #432E29",
"t  c #43332E",
"y  c #4C342F",
"u  c #423733",
"i  c #4A3531",
"p  c #433933",
"a  c #4E3A36",
"s  c #4A3E3B",
"d  c #523732",
"f  c #523A35",
"g  c #553D39",
"h  c #593F3A",
"j  c #4C4435",
"k  c #4C403D",
"l  c #4E4B3E",
"z  c #56403C",
"x  c #5C433E",
"c  c #554C3C",
"v  c #3E4043",
"b  c #3F4C54",
"n  c #424346",
"m  c #544642",
"M  c #5E4540",
"N  c #544D42",
"B  c #535243",
"V  c #5B5C4D",
"C  c #414E55",
"Z  c #44515A",
"A  c #48545C",
"S  c #5E5F51",
"D  c #604742",
"F  c #634A45",
"G  c #6C4D46",
"H  c #6B4E49",
"J  c #6C514B",
"K  c #70534D",
"L  c #71584F",
"P  c #765A52",
"I  c #7B5D56",
"U  c #5F6550",
"Y  c #636B55",
"T  c #67675A",
"R  c #7D6157",
"E  c #677059",
"W  c #6B755C",
"Q  c #6C7B5F",
"!  c #4A5760",
"~  c #4D5A62",
"^  c #515E66",
"/  c #57636B",
"(  c #6E7D61",
")  c #9B5E5B",
"_  c #85645B",
"`  c #87695F",
"'  c #88685E",
"]  c #A2615F",
"[  c #8A6C61",
"{  c #867468",
"}  c #89776B",
"|  c #957369",
" . c #9B766B",
".. c #9E796F",
"X. c #8E7D70",
"o. c #A66461",
"O. c #AC6664",
"+. c #A86864",
"@. c #B16866",
"#. c #B56C69",
"$. c #B6726E",
"%. c #A27C72",
"&. c #BA7570",
"*. c #738267",
"=. c #76846A",
"-. c #7A826E",
";. c #948479",
":. c #87947C",
">. c #A68276",
",. c #AA8377",
"<. c #A68478",
"1. c #AD8679",
"2. c #AF887B",
"3. c #B0877B",
"4. c #B48B7E",
"5. c #9C8E84",
"6. c #A79383",
"7. c #AA9786",
"8. c #BD9386",
"9. c #BE9689",
"0. c #B09E8F",
"q. c #BAA896",
"w. c #BBAC9D",
"e. c #BFB0A4",
"r. c #C09587",
"t. c #C0978A",
"y. c #C39A8C",
"u. c #C99B8D",
"i. c #CD9F90",
"p. c #C2AB97",
"a. c #C1AD99",
"s. c #D2A394",
"d. c #D6A798",
"f. c #DCAD9D",
"g. c #C4B19E",
"h. c #C7B5A2",
"j. c #C8B5A3",
"k. c #CAB8A6",
"l. c #DDB0A0",
"z. c #E4B5A5",
"x. c #D4C4B6",
"c. c #D7C7B8",
"v. c #DBCBBC",
/* pixels */
"+ + + + + + + + + + + + + + + + + +               O y y y y y O         O y y <     + + + + + + + + + + + + + + + + + + + + + + ",
"+ + + + + + + + + + + + + + + + + 6 ; = = = = = = < g f f z f < = = = = < f f r = = + + + + + + + + + + + + + + + + + + + + + + ",
"+ + + + + + + + + + + + + + +     1 y y y y y y y f F F F F F d y y y y d F F z y y O   X + + + + + + + + + + + + + + + + + + + ",
"+ + + + + + + + + + + + + + +     1 y y y y y y y d F F F F F f y y y y d F F z y y O   . + + + + + + + + + + + + + + + + + + + ",
"+ + + + + + + + + + + + + + + + + , # * g x x x x x F F F F F D x x x x x F F D x x d i u 4 4 q + + + + + + + + + + + + + + + + ",
"+ + + + + + + + + + + + + + + + + &     x F F F F F F F F F F F F F F F F F F F F F F F F o   # + + + + + + + + + + + + + + + + ",
"+ + + + + + + + + + + + + + + + + &     z F F F F F F F F F F F F F F F F F F F F F F F M o   # + + + + + + + + + + + + + + + + ",
"+ + + + + + + + + + + + + + + o o w x z F F F F F F F F F F F F F F F F F F F F F F F F D t r 8 # @ q + + + + + + + + + + + + + ",
"+ + + + + + + + + + + + + + +     t F F F F F F F F F F F F F F F F F F F F F F F F F F F y y r     4 + + + + + + + + + + + + + ",
"+ + + + + + + + + + + + + + +     t F F F F F F F F F D D D D F F F D D M F F F F F F F F y y t o X 4 + + + + + + + + + + + + + ",
"+ + + + + + + + + + + + + + +     t F F F F F F F M y y y y y M F D y y d F F F F F F F F y y y y y 1   + + + + + + + + + + + + ",
"+ + + + + + + + + + + + + + +     u F F F F F F F M y y y y y M F F y y d F F F F F F F F y y y y y 1 + + + + + + + + + + + + + ",
"+ + + + + + + + + + + + + + + # O y x x F F F F F F G G h y y M F F G G G F F F F F F F F f a a 8 8 1 + + + + + + + + + + + + + ",
"+ + + + + + + + + + + +     * y y y y y D F F F F I s.s._ y y M F G i.s.8.F F F F F H F F F F z     + + + + + + + + + + + + + + ",
"+ + + + + + + + + + + +     * y y y y y D F F F F I s.s._ y y D F J i.s.8.F F F F F F F F F F z     + + + + + + + + + + + + + + ",
"+ + + + + + + + + + + + + + + ; ; 8 y y D F G %.%.1.s.s.3.| | J F J i.s.u.%.%.' F F F F F F F z     + + + + + + + + + + + + + + ",
"+ + + + + + + + + + + + + + +     1 y y M F J s.s.s.s.s.s.s.s.P F H i.s.s.s.s...F F F F F F F g     + + + + + + + + + + + + + + ",
"+ + + + + + + + + + + + + + +     6 y y D F J s.s.s.s.s.s.s.s.P F J i.s.s.s.s...F D G F F F F h     + + + + + + + + + + + + + + ",
"+ + + + + + + + + + + + + + +     r D M F F J i.s.1.< < | z.l.y.8.8.l.l.t.< < L r.8.F d f F F D g g w % & + + + + + + + + + + + ",
"+ + + + + + + + + + + + + + +     t F F F F J s.s.>.    [ z.z.s.s.s.z.z.9..   J s.s.F i i D F F F F t     + + + + + + + + + + + ",
"+ + + + + + + + + + + + + + + . X u F F F G K i.s.,.    [ z.z.d.s.s.z.z.8.    F s.s.G d d D F F M M w o X + + + + + + + + + + + ",
"+ + + + + + + + + + + + o X - a d M F F o.@.#.s.s.1.; ; | z.z.z.z.z.z.z.9.; ; P s.s.$.@.O.x f i X . + + + + + + + + + + + + + + ",
"+ + + + + + + + + + + +     ; g g M F F o.#.#.s.s.1.; ; | z.z.z.z.z.z.z.t.; ; P s.s.&.@.@.h g i     + + + + + + + + + + + + + + ",
"+ + + + + + + + + + + + & & < t i g D D ) o.+.s.s.4.t y >.z.z.z.z.z.z.z.u.u y ` s.s.#.] ] x g i     + + + + + + + + + + + + + + ",
"+ + + + + + + + + + + + + + +     8 g g g g D s.s.s.z.z.z.z.z.z.z.z.z.z.z.z.z.z.s.s.K g g g g i     + + + + + + + + + + + + + + ",
"+ + + + + + + + + + + + + + +     8 g g g g D s.s.s.z.z.z.z.z.z.z.z.z.z.z.z.z.f.s.s.J g g g g i     + + + + + + + + + + + + + + ",
"+ + + + + + + + + + + + + + + + % 7 6 6 f g x  . .1.l.f.z.z.z.z.z.z.z.z.z.f.l.9. ...F g f 8 6 8 + + + + + + + + + + + + + + + + ",
"+ + + + + + + + + + + + + + + + + 3     y g g g g K s.s.l.z.z.z.z.z.z.z.z.s.s.| g g g g f X   % + + + + + + + + + + + + + + + + ",
"+ + + + + + + + + + + + + + + + + 2     i g g g g K s.s.f.z.z.z.z.z.z.z.l.s.s.| g g g h f X   % + + + + + + + + + + + + + + + + ",
"+ + + + + + + + + + + + + + + + + + + + - # ; f g f 0 t | d.d.d.d.d.d.s.8.0 w y g g ; # % + + + + + + + + + + + + + + + + + + + ",
"+ + + + + + + + + + + + + + + + + + + + @   o g g t     R s.s.s.s.s.s.s.1.    < g g #     + + + + + + + + + + + + + + + + + + + ",
"+ + + + + + + + + + + + + + + + + + + + @   X g g t     R s.s.s.s.s.s.s.1.    < h g O   . + + + + + + + + + + + + + + + + + + + ",
"+ + + + + + + + + + + + + + + + + + + + #   o W W U 7 8 { p.p.p.p.p.p.p.2.7 7 l W W >   . + + + + + + + + + + + + + + + + + + + ",
"+ + + + + + + + + + + + + + + + + + + + %   @ Q Q Y 8 0 { q.p.w.a.a.w.p.7.9 8 B ( ( >   . + + + + + + + + + + + + + + + + + + + ",
"+ + + + + + + + + + + + + + + + + + + + #   o Q *.Y 0 0 } g.g.g.g.a.a.a.6.0 w B ( ( >   . + + + + + + + + + + + + + + + + + + + ",
"+ + + + + + + + + + + + + + + + + + + + %   o Q Q E k k 5.v.v.v.v.v.a.p.7.k k V ( ( >   . + + + + + + + + + + + + + + + + + + + ",
"+ + + + + + + + + + + + + + + + + + + + %   o Q Q E k k 5.v.v.v.v.c.a.w.7.k k V ( ( >   . + + + + + + + + + + + + + + + + + + + ",
"+ + + + + + + + + + + + + + + + + + + + - O - *.=.W k k 6.v.v.v.v.v.j.h.0.k s U *.*.4 @ # + + + + + + + + + + + + + + + + + + + ",
"+ + + + + + + + + + + + + + + + + ,     6 9 t :.:.-.k k 5.v.v.v.v.v.v.v.h.k k T :.:.k 8 9 .   % + + + + + + + + + + + + + + + + ",
"+ + + + + + + + + + + + + + + + + ,     7 8 t :.:.-.k k 5.v.v.v.v.v.v.v.e.k k T :.:.j 8 8 X   % + + + + + + + + + + + + + + + + ",
"+ + + + + + + + + + + + + + + + + 2     7 8 w =.-.( k k ;.k.k.c.v.v.v.v.e.k k S =.-.m e u .   % + + + + + + + + + + + + + + + + ",
"+ + + + + + + + + + + + + + + + + ,     7 8 w *.( E k k X.w.p.x.v.v.v.v.e.k k S ( ( N k k X   % + + + + + + + + + + + + + + + + ",
"+ + + + + + + + + + + + + + + + + 2 . . 7 8 w Q ( E s m X.p.p.x.v.v.v.v.e.k s S ( Q N n s X   % + + + + + + + + + + + + + + + + ",
"+ + + + + + + + + + + + + + + @ : 4 e p O o o e u u s k 5.x.x.h.g.h.v.v.e.k k p p p s k k u u e + + + + + + + + + + + + + + + + ",
"+ + + + + + + + + + + + + + +   . 0 s s o   o 8 8 e s k 5.v.v.g.a.a.c.v.e.s m u 8 8 s s k k k u     + + + + + + + + + + + + + + ",
"+ + + + + + + + + + + + + + +     0 m c o   X 8 8 e s s 5.x.x.w.q.q.x.x.w.s s u 0 0 k m m m m s     + + + + + + + + + + + + + + ",
"+ + + + + + + + + + + + + + +     ` i.i.,   . 8 0 0 0 0 v A ! Z Z Z A A C 8 8 8 0 0 9.l.l.l.l.9.    + + + + + + + + + + + + + + ",
"+ + + + + + + + + + + + + + +     [ s.s.,   X 8 0 0 0 0 v b Z b Z Z Z C C 8 8 8 8 0 t.z.z.z.z.u.    + + + + + + + + + + + + + + ",
"+ + + + + + + + + + + + + + + @ @ R <.2.%   X q e e e e b Z Z ! ! Z Z ! Z e e e e e <.9.9.9.9.<.& & + + + + + + + + + + + + + + ",
"+ + + + + + + + + + + + + + + + + &         X Z Z A / / / / / / / / / / / / / ~ b b $         % + + + + + + + + + + + + + + + + ",
"+ + + + + + + + + + + + + + + + + &         o C Z A / / / / / / / / / / / / / ~ Z b %         % + + + + + + + + + + + + + + + + ",
"+ + + + + + + + + + + + + + + + + + + + o   o C Z A / / / / / ~ ~ ~ / / / / / ~ Z Z %     + + + + + + + + + + + + + + + + + + + ",
"+ + + + + + + + + + + + + + + + + + + + $   @ Z b ! / / / / / Z b b / / / / / ~ b Z $ . . + + + + + + + + + + + + + + + + + + + ",
"+ + + + + + + + + + + + + + + + + + + + $   o b b A / / / / / ! Z Z / / / / / ~ ! b $ . . + + + + + + + + + + + + + + + + + + + ",
"+ + + + + + + + + + + + + + + + + + + + @   o b Z ! / / ! ! ! 2 $ & ! ! ! / / ^ ^ ^ $ . . + + + + + + + + + + + + + + + + + + + ",
"+ + + + + + + + + + + + + + + + + + + : @   o b Z ! / / ! b b $ . o b b ! / / / / / $   X + + + + + + + + + + + + + + + + + + + ",
"+ + + + + + + + + + + + + + + + + + + + @ . o b b ! / / ! Z Z @ . . b b ! / / / / / &   . + + + + + + + + + + + + + + + + + + + ",
"+ + + + + + + + + + + + + + + + + + + + %   @ b Z Z Z Z 5 X @ + : : @ o > B B B B c #   . + + + + + + + + + + + + + + + + + + + ",
"+ + + + + + + + + + + + + + + + + + + + #   X b b ! Z b 5     + + +     # c l c c c #   . + + + + + + + + + + + + + + + + + + + ",
"+ + + + + + + + + + + + + + + + + + + + %   o b b b b b 2     + + + $ @ & j j j j j , @ # + + + + + + + + + + + + + + + + + + + ",
"+ + + + + + + + + + + + + + + + + + + + #   X 1 6 6 6 6 #     + + + + + +           + + + + + + + + + + + + + + + + + + + + + + ",
"+ + + + + + + + + + + + + + + + + + + + %     6 6 6 6 6 =     + + + + + +           + + + + + + + + + + + + + + + + + + + + + + ",
"+ + + + + + + + + + + + + + + + + + + + #   . w w r 0 r %     + + + + + + , - 2 4 3 + + + + + + + + + + + + + + + + + + + + + + ",
"+ + + + + + + + + + + + + + + + + + + + #   o c c c c N <     + + + + + + + + + + + + + + + + + + + + + + + + + + + + + + + + + "
};
