/* XPM */
static char *result[] = {
/* columns rows colors chars-per-pixel */
"64 75 102 2 ",
"   c #121E0C",
".  c #1A1F0E",
"X  c #1F1414",
"o  c #171B10",
"O  c #1E1719",
"+  c #1F181A",
"@  c #22120E",
"#  c #251611",
"$  c #281712",
"%  c #241816",
"&  c #2B1A13",
"*  c #231A19",
"=  c #311F16",
"-  c #092C0D",
";  c #112C0E",
":  c #0A320F",
">  c #0E2613",
",  c #0D2C11",
"<  c #122416",
"1  c #1B2711",
"2  c #132D16",
"3  c #1B2912",
"4  c #16221B",
"5  c #18221D",
"6  c #172D1A",
"7  c #1B2E1D",
"8  c #0C3510",
"9  c #0D3B12",
"0  c #123315",
"q  c #123C13",
"w  c #163119",
"e  c #1C351D",
"r  c #1A3B1B",
"t  c #2E2317",
"y  c #232C15",
"u  c #332117",
"i  c #352419",
"p  c #3A261B",
"a  c #3D291C",
"s  c #1E1E22",
"d  c #1F2D20",
"f  c #1F3220",
"g  c #232F24",
"h  c #272E28",
"j  c #2B2F2C",
"k  c #3E2E25",
"l  c #213322",
"z  c #273028",
"x  c #29302A",
"c  c #422C1E",
"v  c #452E20",
"b  c #463121",
"n  c #4C3323",
"m  c #513725",
"M  c #533926",
"N  c #563C29",
"B  c #5B3E2A",
"V  c #0F4115",
"C  c #114517",
"Z  c #134817",
"A  c #194817",
"S  c #134718",
"D  c #1B441A",
"F  c #154B19",
"G  c #1A4D1A",
"H  c #17501A",
"J  c #1A541C",
"K  c #1E591E",
"L  c #21551D",
"P  c #215B1F",
"I  c #225E20",
"U  c #285A20",
"Y  c #256322",
"T  c #2A6523",
"R  c #2B6C26",
"E  c #326E27",
"W  c #2D7027",
"Q  c #2E7228",
"!  c #307027",
"~  c #317529",
"^  c #38772A",
"/  c #347B2C",
"(  c #397D2C",
")  c #5E412C",
"_  c #63452E",
"`  c #664730",
"'  c #674931",
"]  c #6B4B33",
"[  c #704F35",
"{  c #725136",
"}  c #755338",
"|  c #3B822E",
" . c #3E8630",
".. c #3F8831",
"X. c #408730",
"o. c #438C32",
"O. c #479134",
"+. c #4A9536",
"@. c #4C9837",
"#. c #4E9A38",
"$. c #519E3A",
"%. c #53A03B",
/* pixels */
". . . . . . . . . . . . . . . . 1 g g g g 7 g . g r T o.#.%.%.#.o.R L D f y r G L U P L l 1 . . . . . . . . . . . . . . . . . . ",
". . . . . . . . . . . . . . . . l 0 q q q 8 e g q R O.%.%.%.%.%.%.%.+./ D 9 G  .#.%.%.$.L f . . . . . . . . . . . . . . . . . . ",
". . . . . . . . . . . . . . . g , T  .+.+.^ G q R O.$.%.%.%.%.%.%.%.$.@.+./ / $.$.%.%.$.+.L ; ; - - 2 . . . . . . . . . . . . . ",
". . . . . . . . . . . . . . 1 r I o.+.%.$.+.X.^ / +.%.%.%.%.%.%.%.%.%.%.$.o. .$.%.%.%.%.$.T q ^ ^ T L 6 . . . . . . . . . . . . ",
". . . . . . . . . . . . . . 7 C / #.%.%.%.%.%.@...O.@.%.%.%.%.%.%.%.%.%.$.+.o.%.%.%.%.%.%.^ R %.$.+./ G e h . . . . . . . . . . ",
". . . . . . . . . . . . . . 6 C ~ +.%.%.%.%.%.%.$...O.%.%.%.%.%.%.%.%.%.%.%.%.%.%.%.%.%.%.%.$.%.$.$.@./ C 7 . . . . . . . . . . ",
". . . . . . . . . . 7 ; 2 - 0 C J O.%.%.%.%.%.%.%.@.#.%.%.%.%.%.%.%.%.%.%.%.%.%.%.%.%.%.%.%.%.%.$.%.$./ D 6 . . . . . . . . . . ",
". . . . . . . . . 7 G P L C P ^ (  .+.%.%.%.%.%.%.%.%.%.%.%.%.%.%.%.%.%.%.%.%.%.%.%.%.%.%.%.%.%.%.%.O.U C 2 7 . . . . . . . . . ",
". . . . . . . . g q R | | P | %.$.o.+.%.%.%.%.%.%.%.%.%.%.%.%.%.%.%.%.%.%.%.%.%.%.%.%.%.%.%.%.%.%.o.^ Y Y D - . . . . . . . . . ",
". . . . . . . 7 q ~ +.%.$.| O.%.%.%.$.%.%.%.%.%.%.%.%.%.%.%.%.%.%.%.%.%.%.%.%.%.%.%.%.%.%.%.%.%.%.^ Y $.$.E 0 . . . . . . . . . ",
". . . . . . . g q o.$.%.$.#.$.$.%.%.%.%.%.%.%.%.%.%.%.%.%.%.%.%.%.%.%.%.%.%.%.%.%.%.%.%.%.%.%.%.%.@.O.%.%.X.Y 2 . . . . . . . . ",
". . . . . . g r T @.$.%.%.%.%.$.%.%.%.%.%.%.%.%.%.%.%.%.%.%.%.%.%.%.%.%.%.%.%.#.o.@.%.%.%.%.%.%.%.%.%.%.%.o.R : . . . . . . . . ",
". . . . . . r P ( o.$.%.%.%.%.%.%.%.%.%.%.%.%.%.%.%.%.%.%.+.+.O.X.o.+.$.+.X.o.O...+.%.%.%.%.%.%.%.%.%.%.%.O./ A e . . . . . . . ",
". . . . . - I ( / / +.$.%.%.%.%.%.%.%.%.%.%.%.%.%.%.%.%.%. ./ Q F T  .+./ K K / @.%.%.%.%.%.%.%.%.%.%.%.%.%.@./ D 6 . . . . . . ",
". . . . x - I / / / +.$.%.%.%.%.%.%.%.%.%.%.%.%.%.%.%.%.%.#.#.O.~ K J K J Y Q / @.%.%.%.%.%.%.%.%.%.%.%.%.%.@./ A 6 . . . . . . ",
". . . g w L R / / o.#.%.%.%.%.%.%.%.%.%.%.%.%.%.%.%.%.%.%.%.%.#.O.( W I S T | o.#.%.%.%.%.%.%.%.%.%.%.%.%.%.$.O.G 6 . . . . . . ",
". . . d q Q  .| | @.%.%.%.%.%.%.%.%.%.%.%.%.%.%.%.%.%.%.%.%.%.%.%.%.@.( I ~ O.%.%.%.%.%.%.%.%.%.%.%.%.%.%.%.%.%.T r g . . . . . ",
". . . d q ! O.o.| #.$.%.$.%.%.%.%.%.%.%.%.%.%.%.%.%.%.%.%.%.%.%.%.%.%.#.( +.$.%.%.%.%.%.%.%.%.%.%.%.%.%.%.%.%.%.X.P ; . . . . . ",
". . . 7 q O.#.#.O. .+.%.@.Y | %.%.%.%.%.%.%.%.%.%.%.%.%.%.%.%.%.%.%.%.$.@.#.%.%.%.%.%.%.%.%.%.%.%.%.%.%.%.%.%.%.@.E - . . . . . ",
". . . g q ..#.%.+.|  .| Q F ~ %.%.%.%.%.%.%.%.%.%.%.%.%.%.%.%.%.%.%.%.%.%.$.%.%.%.%.%.%.%.%.%.%.%.%.%.%.%.%.%.%.%.E - . . . . . ",
". . . 7 q ~ o.+.O./ Q I C H | %.%.%.%.%.%.%.%.%.%.%.%.%.%.%.%.%.%.%.%.%.%.%.%.%.%.%.%.%.%.%.%.%.%.%.%.%.%.%.%.%.@.E , . . . . . ",
". . . d q Q / / / / K V F W o.%.%.%.%.%.%.%.%.%.%.%.%.%.%.%.%.%.%.%.%.%.%.%.%.%.%.%.%.%.%.%.%.%.%.%.%.%.%.%.%.%. .P , . . . . . ",
". . . . l q F J J J F H R / | ..%.%.%.%.%.%.%.%.%.%.%.%.%.%.%.%.%.%.%.%.%.%.%.%.%.%.%.%.%.%.%.%.%.%.%.%.%.%.%.%.U r . . . . . . ",
". . . 1 7 8 V F K C J Q ....|  .%.%.%.%.%.%.%.%.%.%.%.%.%.%.%.%.%.%.%.%.%.%.%.%.%.%.%.%.%.%.%.%.%.%.%.%.%.%.$.o.G 6 . . . . . . ",
". . . 7 9 K I T W S T ..%.%.O...@.#.%.%.%.%.%.%.%.%.%.%.%.%.%.%.%.%.%.%.%.%.%.%.%.%.%.%.%.%.%.%.%.%.%.%.%.%.#. .L e . . . . . . ",
". . 6 8 J +.@.o.W S Y ..%.$.$.O.| @.%.%.%.%.%.%.%.%.%.%.%.%.%.%.%.%.%.%.%.%.%.%.%.%.%.%.%.%.%.%.%.%.%.%.%.$.$.$.| L - . . . . . ",
". . 2 Z ~ #.$.o.Q F Y |  .#.%.#.@.#.%.%.%.%.%.%.%.%.%.%.%.%.%.%.%.%.%.%.%.%.%.%.%.%.%.%.%.%.%.%.%.%.%.%.%.%.%.%...P - 2 g . . . ",
". . D T o.#.+. .Q S K R | #.%.%.%.%.%.%.%.%.%.%.%.%.%.%.%.%.%.%.%.%.%.%.%.%.%.%.%.%.%.%.%.%.%.%.%.%.$.o.$.%.%.%.O.! D : g . . . ",
". - T o.$.%.o. .~ J S K / #.%.%.%.%.%.%.%.@.#.%.%.%.%.%.%.%.%.%.%.%.%.%.%.%.%.%.%.%.%.%.%.%.%.%.%.$.+./  .+.%.%.$.O.W 8 y . . . ",
". - Y o.%.%.$.$.+./ J K | #.%.%.%.%.%.%.%. .O.%.%.%.%.%.%.%.%.%.%.%.%.%.%.%.%.%.%.%.%.%.%.%.%.%.%.o./ / K ! %.%.$.O.W 8 g . . . ",
". - T o.%.$.%.%.#.+./ W / #.%.%.%.%.%.%.%.| R Q #.%.%.%.%.%.%.%.%.%.$.%.%.%.%.%.%.%.%.%.%.%.%.%.$./ J J F J T  .X. .W 8 d . . . ",
". - J ^ +.$.%.%.%.%...Q Y / O.%.%.%.%.#.O.| Y Y ( (  .+.$.%.%.%.%.+.O.+.$.%.%.%.%.%.%.%.%.%.%.%.$. .I S I T R ~ / R K w . . . . ",
". , 9 J / +.#.#.%.%.o.R H C Q +.%.%.#.O.| | | Q J F J | @.#.%.$.#. ./ | @.%.%.%.%.%.%.%.%.%.%.%.%.%.o.J  .%.#. ./ K , < . . . . ",
". < 2 9 J / | ..%.%.$.#.O.J S T %.%.....@.#.#.#.+.K C J | +.%.@. ./ / / #.%.%.%.%.%.%.%.%.%.%.%.%.%.+.Q O.%.%.#. .I , o . . . . ",
". . 2 8 C J K I R  .#.%.$. .I H W | | | %.%.%.%.$.../ Y J / |  ./ / / +.#.%.%.%.%.%.%.%.%.%.%.%.%.%.$.+. .O.%.%. .W L d . . . . ",
". . d 0 9 C J I T Y ( +.%.$./ K K Q | ..%.%.%.%.%.%...| K R / |  . .O.%.%.%.%.%.%.%.%.%.%.%.%.%.%.%.%.%. . .O.O.( / W 8 7 . . . ",
". . . d : 9 R ..O.J R  .#.#. .Q / | ..%.%.%.%.%.%.%.%.@.| / / | #.%.%.%.%.%.%.%.%.%.%.%.%.%.%.%.%.%.%.%. .( / / / ~ R 8 y . . . ",
". . . d 8 9 ( #.#.~ ~ / | / Y K | O.%.%.%.%.%.%.%.%.%.$.#.| ..#.%.%.%.%.%.%.%.%.%.%.%.%.%.%.%.%.%.%.$.$. ./ / / / T V : g . . . ",
". . d 0 9 C ( %.#.o. .R K K F K / #.%.#...@.%.%.%.%.%.#...| ..%.%.%.%.%.%.%.%.%.%.%.%.%.%.%.#...#.$.+.R Q / / / / Y V 9 0 d . . ",
". . 2 8 C K ~ ..O.+.~ K C Y Y K R ..+.../ @.%.%.%.%.%.@./ /  .O.%.%.%.%.%.%.%.%.%.%.%.%.%.%.#... ./ ^ K Q / / / / Y C C 8 6 . . ",
". . 2 : H ~ I P ~ ~ K C J +...Q H Q / / / @.%.%.%.%.%.+.| / | | @.#.#.#.$.%.$.@.$.%.%.%.#.#.%.$.I S K / / / / / ~ Y C C : 2 o < ",
". . 2 G / @.+.~ F F C Y +.#.#.+.O./ / | @.$.%.%.%.%.O.| +.@...| | +.+...#.$.X.I o.$.%.$. .+.%.%.I R O.#.| / / / I F C C 8 0 . . ",
". . 2 G | $.%.X.I C S Y %.%.%.%.$.O.| ..%.%.+...%.%.+.O.%.%.+...o.#.@...Q W R Y +.$.$.o.o.o.....R | %.%.O. .~ / R J C C 8 2 . . ",
". . 2 Z W o.+.| Y S S K  .#.@.@.%.%...| +.+...| O.#.%.%.%.%.%.%.%.%.%.@.R J J / o.+.o. .+.+. ./ / | @.%.%.../ / / R H S 8 6 . . ",
". . 2 8 F Q ~ Y C C C S H ....| $.#.../ / / / / / +.#.%.%.%.%.%.%.%.%.%.%.R J / ( (  .$.%.%.+.( / / | #.#.O.~ / ~ / Q F 8 6 . . ",
". . . 6 : G H F S S I I S J H I | | / / / / / / / | | ..#.%.%.%.%.%.%.%.$. .Q / / o.#.$.%.%.+./ / / / | | / Q J R / W 8 7 . . . ",
". . . . 7 9 V V F I / | Q F H R / / / Q I Q / | ..O.| | #.%.%.%.%.%.%.%.%.../ / /  ...o.#.%.o.Y Q / Q I W / Q S J Y K : d . . . ",
". . . . 1 - 9 V S Y o.%.#.I W | / / / R C Y ~ ..#.%.O./ ..@.%.%.%.%.%.%.%.o. ./ / R W / O.o./ J W / Q J Y R Y S V V 9 2 g . . . ",
". . . . . , 8 9 - V / #.#.| O.O./ / / R Z C Q $.%.$.o.R S  .%.%.%.%.#.@.%.%...Q / K H / / K H / / / / ~ J C C C C 9 , j . . . . ",
". . . . . . 2 - - : Z R | +.#.#.+.| ....R H Q %.%.o.| R S  .%.%.%.%...| #.%.@.Q K Z Z H H Z H / / / / / J C C C 8 2 h . . . . . ",
". . . . . . . 2 - 8 V H Y @.%.O.Q ..+.#.o.R Q o.o./ / R F ~ O.$.%.@.| | ....| | Y H V 8 V C H / / R I I S V 8 8 w g . . . . . . ",
". . . . . . . g - V V C A ( o./ K O.%.%.%.| Q Q / / / Y H W ..+.@...| Q | | R / | K 9 - V C H W R K C C C 9 , , z < . . . . . . ",
". . . . . . . d , V V S V Z V K | +.$.%.%.| I H Q / Y H / / / / | Q | | ~ K J | ~ K V - 9 V V C C C C C C 8 , . . . . . . . . . ",
". . . . . . . . d 8 9 S V : 9 K ~ | | | | P C q J J F H Q / / / | K I Q | K Z H H F 9 - : : 8 C C C C C C 8 , . . . . . . . . . ",
". . . . . . . . < . 8 9 8 - 9 F Y Y I I I F : : 9 V V H ~ / / ~ Y H H I I H C C V V : - - - - : 9 V C C 9 9 d . . . . . . . . . ",
". . . . . . . . . . 7 , , - 9 V V Z Z C C V : - - 9 C F R W W Y C V V C C C C V V : - - - - - - - : V V : d o < . . . . . . . . ",
". . . . . . . . . . . . . - q C Z C C C C - - - - q C C C C C C C 9 : C C C C V - - - - - - - - - - - : g . . . . . . . . . . . ",
". . . . . . . . . . . . . g w - : : : 8 : - - - - - 9 C C C C V : : - 8 : : : 8 y . o + 4 > - - > + 5 o . . . . . . . . . . . . ",
". . . . . . . . . . . . . . g 7 < < <   > 1 1 1 y ; - 8 9 9 9 9 , 1 1 1 1 1 1 1 t # X . < 4 < < < . . . . . . . . . . . . . . . ",
". . . . . . . . . . . . . . . . s s % & $ = u a m y ; ; - - ; 3 t i i t i i i i i $ % . . . . . . . . . . . . . . . . . . . . . ",
". . . . . . . . . . . . . . . . 1 @ b _ b p c m m n a u u c n b i i i i i v v i i c a @ . . . . . . . . . . . . . . . . . . . . ",
". . . . . . . . . . . . . . . . $ n ' _ a u c b a b c a ) _ ) n v p i i v b v i i M M # . . . . . . . . . . . . . . . . . . . . ",
". . . . . . . . . . . . . . . . $ ` _ b i b m b a k b ) { } ] B m p i c N M v a i n B c * . . . . . . . . . . . . . . . . . . . ",
". . . . . . . . . . . . . . . . @ ) c & a ' _ M m p m { } } } ] m c c M [ _ N b p c N ] = * . . . . . . . . . . . . . . . . . . ",
". . . . . . . . . . . . . . . . @ # & c ] } } ' m p m [ } } } [ m m m N [ [ ` n p i c m p # X . . . . . . . . . . . . . . . . . ",
". . . . . . . . . . . . . . . . . @ c _ } ) B N m = c _ [ ` B N m ) B m [ } ' n p = c ` _ v % % . . . . . . . . . . . . . . . . ",
". . . . . . . . . . . . . . . . . a B } } _ M n v $ p _ [ ' N m B ] ] _ [ } ' n p i c ` [ B k @ . . . . . . . . . . . . . . . . ",
". . . . . . . . . . . . . . . . $ _ } } } } _ v = $ n [ } [ ' N [ ] [ } } } ] m a = p n ` [ B @ . . . . . . . . . . . . . . . . ",
". . . . . . . . . . . . . . . . @ ' } } } } ` v @ c B } } } ' m [ m m [ } } { ] m = $ p n ' B # . . . . . . . . . . . . . . . . ",
". . . . . . . . . . . . . . . . $ _ } } } ` n i @ m [ } } } [ _ n c c ) [ ` ` { ] a @ $ c N v @ . . . . . . . . . . . . . . . . ",
". . . . . . . . . . . . . . . . $ B ' ' ` n p = = _ } } [ [ [ ' p = = n _ ) _ } } m u @ p v k X . . . . . . . . . . . . . . . . ",
". . . . . . . . . . . . . . . . @ c n n n i $ & m ] } } [ N ) _ c $ & = n ` } } } } _ $ . . . . . . . . . . . . . . . . . . . . ",
". . . . . . . . . . . . . . . . . . . . . . $ = ] [ } [ N m m m = $ $ p n ` } } } } [ _ = * . . . . . . . . . . . . . . . . . . ",
". . . . . . . . . . . . . . . . . . . . . . . = [ } } ] m m c p & @ # & v B ` } } } ] B & * . . . . . . . . . . . . . . . . . . ",
". . . . . . . . . . . . . . . . . . . . . . . = ' ] ' _ N m c = X X X % c c B ' ` ] _ n & O . . . . . . . . . . . . . . . . . . "
};
